<svg width="1297" height="1297" viewBox="0 0 1297 1297" fill="none" xmlns="http://www.w3.org/2000/svg">
<path d="M468 107.5C468 136.495 444.495 160 415.5 160C386.505 160 363 136.495 363 107.5C363 78.5051 386.505 55 415.5 55C432.223 55 447.12 62.8187 456.734 75C463.789 83.9393 468 95.2279 468 107.5Z" fill="white" fill-opacity="0.8"/>
<path d="M702 52.5C702 81.4949 678.495 105 649.5 105C620.505 105 597 81.4949 597 52.5C597 23.5051 620.505 0 649.5 0C666.223 0 681.12 7.81874 690.734 20C697.789 28.9393 702 40.2279 702 52.5Z" fill="white" fill-opacity="0.8"/>
<circle cx="290" cy="227" r="34" fill="white" fill-opacity="0.8"/>
<circle cx="531" cy="53" r="34" fill="white" fill-opacity="0.8"/>
<circle cx="170.5" cy="527.5" r="41.5" fill="white" fill-opacity="0.8"/>
<circle cx="953.5" cy="527.5" r="41.5" fill="white" fill-opacity="0.8"/>
<circle cx="1191.5" cy="535.5" r="41.5" fill="white" fill-opacity="0.8"/>
<circle cx="1070.5" cy="830.5" r="41.5" fill="white" fill-opacity="0.8"/>
<circle cx="530.5" cy="527.5" r="41.5" fill="white" fill-opacity="0.8"/>
<circle cx="412.5" cy="1135.5" r="52.5" fill="white" fill-opacity="0.8"/>
<path d="M446.5 21C446.5 30.9411 394.941 39 385 39C375.059 39 367 30.9411 367 21C367 11.0589 375.059 3 385 3C394.941 3 446.5 11.0589 446.5 21Z" fill="white" fill-opacity="0.8"/>
<path d="M320.5 142C320.5 151.941 277.941 160 268 160C258.059 160 250 151.941 250 142C250 132.059 258.059 124 268 124C277.941 124 320.5 132.059 320.5 142Z" fill="white" fill-opacity="0.8"/>
<path d="M399 202C399 211.941 390.941 252.5 381 252.5C371.059 252.5 363 211.941 363 202C363 192.059 371.059 184 381 184C390.941 184 399 192.059 399 202Z" fill="white" fill-opacity="0.8"/>
<path d="M399 202C399 211.941 390.941 252.5 381 252.5C371.059 252.5 363 211.941 363 202C363 192.059 371.059 184 381 184C390.941 184 399 192.059 399 202Z" fill="white" fill-opacity="0.8"/>
<path d="M399 262C399 271.941 390.941 280 381 280C371.059 280 363 271.941 363 262C363 252.059 371.059 217 381 217C390.941 217 399 252.059 399 262Z" fill="white" fill-opacity="0.8"/>
<path d="M167 263C167 272.941 158.941 313.5 149 313.5C139.059 313.5 131 272.941 131 263C131 253.059 139.059 245 149 245C158.941 245 167 253.059 167 263Z" fill="white" fill-opacity="0.8"/>
<path d="M167 323C167 332.941 158.941 341 149 341C139.059 341 131 332.941 131 323C131 313.059 139.059 278 149 278C158.941 278 167 313.059 167 323Z" fill="white" fill-opacity="0.8"/>
<path d="M822 142C822 151.941 813.941 192.5 804 192.5C794.059 192.5 786 151.941 786 142C786 132.059 794.059 124 804 124C813.941 124 822 132.059 822 142Z" fill="white" fill-opacity="0.8"/>
<path d="M822 202C822 211.941 813.941 220 804 220C794.059 220 786 211.941 786 202C786 192.059 794.059 157 804 157C813.941 157 822 192.059 822 202Z" fill="white" fill-opacity="0.8"/>
<path d="M822 86C822 95.9411 813.941 136.5 804 136.5C794.059 136.5 786 95.9411 786 86C786 76.0589 794.059 68 804 68C813.941 68 822 76.0589 822 86Z" fill="white" fill-opacity="0.8"/>
<path d="M822 146C822 155.941 813.941 164 804 164C794.059 164 786 155.941 786 146C786 136.059 794.059 101 804 101C813.941 101 822 136.059 822 146Z" fill="white" fill-opacity="0.8"/>
<path d="M637 567C637 576.941 628.941 617.5 619 617.5C609.059 617.5 601 576.941 601 567C601 557.059 609.059 549 619 549C628.941 549 637 557.059 637 567Z" fill="white" fill-opacity="0.8"/>
<path d="M637 627C637 636.941 628.941 645 619 645C609.059 645 601 636.941 601 627C601 617.059 609.059 582 619 582C628.941 582 637 617.059 637 627Z" fill="white" fill-opacity="0.8"/>
<path d="M880 142C880 151.941 871.941 192.5 862 192.5C852.059 192.5 844 151.941 844 142C844 132.059 852.059 124 862 124C871.941 124 880 132.059 880 142Z" fill="white" fill-opacity="0.8"/>
<path d="M880 202C880 211.941 871.941 220 862 220C852.059 220 844 211.941 844 202C844 192.059 852.059 157 862 157C871.941 157 880 192.059 880 202Z" fill="white" fill-opacity="0.8"/>
<path d="M695 567C695 576.941 686.941 617.5 677 617.5C667.059 617.5 659 576.941 659 567C659 557.059 667.059 549 677 549C686.941 549 695 557.059 695 567Z" fill="white" fill-opacity="0.8"/>
<path d="M695 627C695 636.941 686.941 645 677 645C667.059 645 659 636.941 659 627C659 617.059 667.059 582 677 582C686.941 582 695 617.059 695 627Z" fill="white" fill-opacity="0.8"/>
<path d="M761 86C761 95.9411 752.941 136.5 743 136.5C733.059 136.5 725 95.9411 725 86C725 76.0589 733.059 68 743 68C752.941 68 761 76.0589 761 86Z" fill="white" fill-opacity="0.8"/>
<path d="M761 146C761 155.941 752.941 164 743 164C733.059 164 725 155.941 725 146C725 136.059 733.059 101 743 101C752.941 101 761 136.059 761 146Z" fill="white" fill-opacity="0.8"/>
<path d="M587 144.188C587 152.575 578.941 186.797 569 186.797C559.059 186.797 551 152.575 551 144.188C551 135.8 559.059 129 569 129C578.941 129 587 135.8 587 144.188Z" fill="white" fill-opacity="0.8"/>
<path d="M587 194.812C587 203.2 578.941 210 569 210C559.059 210 551 203.2 551 194.812C551 186.425 559.059 156.844 569 156.844C578.941 156.844 587 186.425 587 194.812Z" fill="white" fill-opacity="0.8"/>
<path d="M463 21C463 30.9411 454.941 39 445 39C435.059 39 391 30.9411 391 21C391 11.0589 435.059 3 445 3C454.941 3 463 11.0589 463 21Z" fill="white" fill-opacity="0.8"/>
<path d="M344 138C344 147.941 335.941 156 326 156C316.059 156 274.5 147.941 274.5 138C274.5 128.059 316.059 120 326 120C335.941 120 344 128.059 344 138Z" fill="white" fill-opacity="0.8"/>
<path d="M344 138C344 147.941 335.941 156 326 156C316.059 156 274.5 147.941 274.5 138C274.5 128.059 316.059 120 326 120C335.941 120 344 128.059 344 138Z" fill="white" fill-opacity="0.8"/>
<circle cx="442" cy="201" r="18" fill="white" fill-opacity="0.8"/>
<circle cx="507" cy="201" r="18" fill="white" fill-opacity="0.8"/>
<circle cx="743" cy="201" r="18" fill="white" fill-opacity="0.8"/>
<circle cx="1041" cy="201" r="18" fill="white" fill-opacity="0.8"/>
<circle cx="925" cy="260" r="18" fill="white" fill-opacity="0.8"/>
<circle cx="925" cy="384" r="18" fill="white" fill-opacity="0.8"/>
<circle cx="985" cy="318" r="18" fill="white" fill-opacity="0.8"/>
<circle cx="1101" cy="201" r="18" fill="white" fill-opacity="0.8"/>
<circle cx="1101" cy="440" r="18" fill="white" fill-opacity="0.8"/>
<circle cx="1043" cy="742" r="18" fill="white" fill-opacity="0.8"/>
<circle cx="1163" cy="922" r="18" fill="white" fill-opacity="0.8"/>
<circle cx="1221" cy="922" r="18" fill="white" fill-opacity="0.8"/>
<circle cx="981" cy="802" r="18" fill="white" fill-opacity="0.8"/>
<circle cx="981" cy="862" r="18" fill="white" fill-opacity="0.8"/>
<circle cx="981" cy="985" r="18" fill="white" fill-opacity="0.8"/>
<circle cx="981" cy="920" r="18" fill="white" fill-opacity="0.8"/>
<circle cx="981" cy="1160" r="18" fill="white" fill-opacity="0.8"/>
<circle cx="1043" cy="1101" r="18" fill="white" fill-opacity="0.8"/>
<circle cx="925" cy="802" r="18" fill="white" fill-opacity="0.8"/>
<circle cx="866" cy="1217" r="18" fill="white" fill-opacity="0.8"/>
<circle cx="925" cy="1039" r="18" fill="white" fill-opacity="0.8"/>
<circle cx="925" cy="986" r="18" fill="white" fill-opacity="0.8"/>
<circle cx="867" cy="1039" r="18" fill="white" fill-opacity="0.8"/>
<circle cx="803" cy="1101" r="18" fill="white" fill-opacity="0.8"/>
<circle cx="1101" cy="260" r="18" fill="white" fill-opacity="0.8"/>
<circle cx="1164" cy="319" r="18" fill="white" fill-opacity="0.8"/>
<circle cx="1164" cy="378" r="18" fill="white" fill-opacity="0.8"/>
<circle cx="1233" cy="378" r="18" fill="white" fill-opacity="0.8"/>
<circle cx="1279" cy="621" r="18" fill="white" fill-opacity="0.8"/>
<circle cx="1279" cy="676" r="18" fill="white" fill-opacity="0.8"/>
<circle cx="1279" cy="735" r="18" fill="white" fill-opacity="0.8"/>
<circle cx="743" cy="19" r="18" fill="white" fill-opacity="0.8"/>
<circle cx="984" cy="142" r="18" fill="white" fill-opacity="0.8"/>
<circle cx="1045" cy="142" r="18" fill="white" fill-opacity="0.8"/>
<circle cx="202" cy="200" r="18" fill="white" fill-opacity="0.8"/>
<circle cx="202" cy="326" r="18" fill="white" fill-opacity="0.8"/>
<circle cx="202" cy="447" r="18" fill="white" fill-opacity="0.8"/>
<circle cx="260" cy="444" r="18" fill="white" fill-opacity="0.8"/>
<circle cx="262" cy="926" r="18" fill="white" fill-opacity="0.8"/>
<circle cx="204" cy="802" r="18" fill="white" fill-opacity="0.8"/>
<circle cx="259" cy="802" r="18" fill="white" fill-opacity="0.8"/>
<circle cx="204" cy="745" r="18" fill="white" fill-opacity="0.8"/>
<circle cx="25" cy="447" r="18" fill="white" fill-opacity="0.8"/>
<circle cx="85" cy="926" r="18" fill="white" fill-opacity="0.8"/>
<circle cx="205" cy="1037" r="18" fill="white" fill-opacity="0.8"/>
<circle cx="85" cy="861" r="18" fill="white" fill-opacity="0.8"/>
<circle cx="385" cy="560" r="18" fill="white" fill-opacity="0.8"/>
<circle cx="385" cy="504" r="18" fill="white" fill-opacity="0.8"/>
<circle cx="444" cy="437" r="18" fill="white" fill-opacity="0.8"/>
<circle cx="561" cy="321" r="18" fill="white" fill-opacity="0.8"/>
<circle cx="744" cy="382" r="18" fill="white" fill-opacity="0.8"/>
<circle cx="744" cy="321" r="18" fill="white" fill-opacity="0.8"/>
<circle cx="807" cy="382" r="18" fill="white" fill-opacity="0.8"/>
<circle cx="862" cy="437" r="18" fill="white" fill-opacity="0.8"/>
<circle cx="324" cy="321" r="18" fill="white" fill-opacity="0.8"/>
<circle cx="385" cy="620" r="18" fill="white" fill-opacity="0.8"/>
<circle cx="385" cy="675" r="18" fill="white" fill-opacity="0.8"/>
<circle cx="385" cy="1039" r="18" fill="white" fill-opacity="0.8"/>
<circle cx="443" cy="1039" r="18" fill="white" fill-opacity="0.8"/>
<circle cx="501" cy="1039" r="18" fill="white" fill-opacity="0.8"/>
<circle cx="503" cy="1097" r="18" fill="white" fill-opacity="0.8"/>
<circle cx="442" cy="740" r="18" fill="white" fill-opacity="0.8"/>
<circle cx="386" cy="740" r="18" fill="white" fill-opacity="0.8"/>
<circle cx="442" cy="801" r="18" fill="white" fill-opacity="0.8"/>
<circle cx="442" cy="859" r="18" fill="white" fill-opacity="0.8"/>
<circle cx="261" cy="859" r="18" fill="white" fill-opacity="0.8"/>
<circle cx="389" cy="801" r="18" fill="white" fill-opacity="0.8"/>
<circle cx="385" cy="979" r="18" fill="white" fill-opacity="0.8"/>
<circle cx="322" cy="921" r="18" fill="white" fill-opacity="0.8"/>
<circle cx="496" cy="802" r="18" fill="white" fill-opacity="0.8"/>
<circle cx="565" cy="923" r="18" fill="white" fill-opacity="0.8"/>
<circle cx="745" cy="923" r="18" fill="white" fill-opacity="0.8"/>
<circle cx="802" cy="923" r="18" fill="white" fill-opacity="0.8"/>
<circle cx="862" cy="623" r="18" fill="white" fill-opacity="0.8"/>
<circle cx="743" cy="740" r="18" fill="white" fill-opacity="0.8"/>
<circle cx="688" cy="436" r="18" fill="white" fill-opacity="0.8"/>
<path d="M282 379C282 388.941 273.941 397 264 397C254.059 397 246 388.941 246 379C246 369.059 254.059 321 264 321C273.941 321 282 369.059 282 379Z" fill="white" fill-opacity="0.8"/>
<path d="M862 544C871.941 544 880 552.059 880 562C880 571.941 871.941 580 862 580C852.059 580 804 571.941 804 562C804 552.059 852.059 544 862 544Z" fill="white" fill-opacity="0.8"/>
<path d="M639 735C639 744.941 630.941 753 621 753C611.059 753 603 744.941 603 735C603 725.059 611.059 677 621 677C630.941 677 639 725.059 639 735Z" fill="white" fill-opacity="0.8"/>
<path d="M1241 735C1241 744.941 1232.94 753 1223 753C1213.06 753 1205 744.941 1205 735C1205 725.059 1213.06 677 1223 677C1232.94 677 1241 725.059 1241 735Z" fill="white" fill-opacity="0.8"/>
<path d="M924 758C914.059 758 906 749.941 906 740C906 730.059 914.059 722 924 722C933.941 722 982 730.059 982 740C982 749.941 933.941 758 924 758Z" fill="white" fill-opacity="0.8"/>
<path d="M558 844C567.941 844 576 852.059 576 862C576 871.941 567.941 880 558 880C548.059 880 500 871.941 500 862C500 852.059 548.059 844 558 844Z" fill="white" fill-opacity="0.8"/>
<path d="M97 625C97 634.941 88.9411 682.5 79 682.5C69.0589 682.5 61 634.941 61 625C61 615.059 69.0589 607 79 607C88.9411 607 97 615.059 97 625Z" fill="white" fill-opacity="0.8"/>
<path d="M97 683C97 692.941 88.9411 701 79 701C69.0589 701 61 692.941 61 683C61 673.059 69.0589 625 79 625C88.9411 625 97 673.059 97 683Z" fill="white" fill-opacity="0.8"/>
<path d="M162 981C162 990.941 153.941 1038.5 144 1038.5C134.059 1038.5 126 990.941 126 981C126 971.059 134.059 963 144 963C153.941 963 162 971.059 162 981Z" fill="white" fill-opacity="0.8"/>
<path d="M162 1039C162 1048.94 153.941 1057 144 1057C134.059 1057 126 1048.94 126 1039C126 1029.06 134.059 981 144 981C153.941 981 162 1029.06 162 1039Z" fill="white" fill-opacity="0.8"/>
<path d="M36 625C36 634.941 27.9411 682.5 18 682.5C8.05887 682.5 0 634.941 0 625C0 615.059 8.05887 607 18 607C27.9411 607 36 615.059 36 625Z" fill="white" fill-opacity="0.8"/>
<path d="M36 683C36 692.941 27.9411 701 18 701C8.05887 701 0 692.941 0 683C0 673.059 8.05887 625 18 625C27.9411 625 36 673.059 36 683Z" fill="white" fill-opacity="0.8"/>
<path d="M463 498C463 507.941 454.941 555.5 445 555.5C435.059 555.5 427 507.941 427 498C427 488.059 435.059 480 445 480C454.941 480 463 488.059 463 498Z" fill="white" fill-opacity="0.8"/>
<path d="M463 556C463 565.941 454.941 574 445 574C435.059 574 427 565.941 427 556C427 546.059 435.059 498 445 498C454.941 498 463 546.059 463 556Z" fill="white" fill-opacity="0.8"/>
<path d="M463 619C463 628.941 454.941 676.5 445 676.5C435.059 676.5 427 628.941 427 619C427 609.059 435.059 601 445 601C454.941 601 463 609.059 463 619Z" fill="white" fill-opacity="0.8"/>
<path d="M463 677C463 686.941 454.941 695 445 695C435.059 695 427 686.941 427 677C427 667.059 435.059 619 445 619C454.941 619 463 667.059 463 677Z" fill="white" fill-opacity="0.8"/>
<path d="M505 420C514.941 420 562.5 428.059 562.5 438C562.5 447.941 514.941 456 505 456C495.059 456 487 447.941 487 438C487 428.059 495.059 420 505 420Z" fill="white" fill-opacity="0.8"/>
<path d="M563 420C572.941 420 581 428.059 581 438C581 447.941 572.941 456 563 456C553.059 456 505 447.941 505 438C505 428.059 553.059 420 563 420Z" fill="white" fill-opacity="0.8"/>
<path d="M505 659C514.941 659 562.5 667.059 562.5 677C562.5 686.941 514.941 695 505 695C495.059 695 487 686.941 487 677C487 667.059 495.059 659 505 659Z" fill="white" fill-opacity="0.8"/>
<path d="M563 659C572.941 659 581 667.059 581 677C581 686.941 572.941 695 563 695C553.059 695 505 686.941 505 677C505 667.059 553.059 659 563 659Z" fill="white" fill-opacity="0.8"/>
<path d="M505 602C514.941 602 562.5 610.059 562.5 620C562.5 629.941 514.941 638 505 638C495.059 638 487 629.941 487 620C487 610.059 495.059 602 505 602Z" fill="white" fill-opacity="0.8"/>
<path d="M563 602C572.941 602 581 610.059 581 620C581 629.941 572.941 638 563 638C553.059 638 505 629.941 505 620C505 610.059 553.059 602 563 602Z" fill="white" fill-opacity="0.8"/>
<path d="M387 658C396.941 658 444.5 666.059 444.5 676C444.5 685.941 396.941 694 387 694C377.059 694 369 685.941 369 676C369 666.059 377.059 658 387 658Z" fill="white" fill-opacity="0.8"/>
<path d="M445 658C454.941 658 463 666.059 463 676C463 685.941 454.941 694 445 694C435.059 694 387 685.941 387 676C387 666.059 435.059 658 445 658Z" fill="white" fill-opacity="0.8"/>
<path d="M623.043 609C632.455 609 677.484 617.059 677.484 627C677.484 636.941 632.455 645 623.043 645C613.63 645 606 636.941 606 627C606 617.059 613.63 609 623.043 609Z" fill="white" fill-opacity="0.8"/>
<path d="M677.957 609C687.37 609 695 617.059 695 627C695 636.941 687.37 645 677.957 645C668.545 645 623.043 636.941 623.043 627C623.043 617.059 668.545 609 677.957 609Z" fill="white" fill-opacity="0.8"/>
<path d="M623.043 844C632.455 844 677.484 852.059 677.484 862C677.484 871.941 632.455 880 623.043 880C613.63 880 606 871.941 606 862C606 852.059 613.63 844 623.043 844Z" fill="white" fill-opacity="0.8"/>
<path d="M677.957 844C687.37 844 695 852.059 695 862C695 871.941 687.37 880 677.957 880C668.545 880 623.043 871.941 623.043 862C623.043 852.059 668.545 844 677.957 844Z" fill="white" fill-opacity="0.8"/>
<path d="M623.043 900C632.455 900 677.484 908.059 677.484 918C677.484 927.941 632.455 936 623.043 936C613.63 936 606 927.941 606 918C606 908.059 613.63 900 623.043 900Z" fill="white" fill-opacity="0.8"/>
<path d="M677.957 900C687.37 900 695 908.059 695 918C695 927.941 687.37 936 677.957 936C668.545 936 623.043 927.941 623.043 918C623.043 908.059 668.545 900 677.957 900Z" fill="white" fill-opacity="0.8"/>
<path d="M866.043 1083C875.455 1083 920.484 1091.06 920.484 1101C920.484 1110.94 875.455 1119 866.043 1119C856.63 1119 849 1110.94 849 1101C849 1091.06 856.63 1083 866.043 1083Z" fill="white" fill-opacity="0.8"/>
<path d="M920.957 1083C930.37 1083 938 1091.06 938 1101C938 1110.94 930.37 1119 920.957 1119C911.545 1119 866.043 1110.94 866.043 1101C866.043 1091.06 911.545 1083 920.957 1083Z" fill="white" fill-opacity="0.8"/>
<path d="M866.043 1145C875.455 1145 920.484 1153.06 920.484 1163C920.484 1172.94 875.455 1181 866.043 1181C856.63 1181 849 1172.94 849 1163C849 1153.06 856.63 1145 866.043 1145Z" fill="white" fill-opacity="0.8"/>
<path d="M920.957 1145C930.37 1145 938 1153.06 938 1163C938 1172.94 930.37 1181 920.957 1181C911.545 1181 866.043 1172.94 866.043 1163C866.043 1153.06 911.545 1145 920.957 1145Z" fill="white" fill-opacity="0.8"/>
<path d="M745.043 844C754.455 844 799.484 852.059 799.484 862C799.484 871.941 754.455 880 745.043 880C735.63 880 728 871.941 728 862C728 852.059 735.63 844 745.043 844Z" fill="white" fill-opacity="0.8"/>
<path d="M799.957 844C809.37 844 817 852.059 817 862C817 871.941 809.37 880 799.957 880C790.545 880 745.043 871.941 745.043 862C745.043 852.059 790.545 844 799.957 844Z" fill="white" fill-opacity="0.8"/>
<path d="M808.043 844C817.455 844 862.484 852.059 862.484 862C862.484 871.941 817.455 880 808.043 880C798.63 880 791 871.941 791 862C791 852.059 798.63 844 808.043 844Z" fill="white" fill-opacity="0.8"/>
<path d="M862.957 844C872.37 844 880 852.059 880 862C880 871.941 872.37 880 862.957 880C853.545 880 808.043 871.941 808.043 862C808.043 852.059 853.545 844 862.957 844Z" fill="white" fill-opacity="0.8"/>
<path d="M686.043 661C695.455 661 740.484 669.059 740.484 679C740.484 688.941 695.455 697 686.043 697C676.63 697 669 688.941 669 679C669 669.059 676.63 661 686.043 661Z" fill="white" fill-opacity="0.8"/>
<path d="M740.957 661C750.37 661 758 669.059 758 679C758 688.941 750.37 697 740.957 697C731.545 697 686.043 688.941 686.043 679C686.043 669.059 731.545 661 740.957 661Z" fill="white" fill-opacity="0.8"/>
<path d="M748.043 661C757.455 661 802.484 669.059 802.484 679C802.484 688.941 757.455 697 748.043 697C738.63 697 731 688.941 731 679C731 669.059 738.63 661 748.043 661Z" fill="white" fill-opacity="0.8"/>
<path d="M802.957 661C812.37 661 820 669.059 820 679C820 688.941 812.37 697 802.957 697C793.545 697 748.043 688.941 748.043 679C748.043 669.059 793.545 661 802.957 661Z" fill="white" fill-opacity="0.8"/>
<path d="M805.043 661C814.455 661 859.484 669.059 859.484 679C859.484 688.941 814.455 697 805.043 697C795.63 697 788 688.941 788 679C788 669.059 795.63 661 805.043 661Z" fill="white" fill-opacity="0.8"/>
<path d="M859.957 661C869.37 661 877 669.059 877 679C877 688.941 869.37 697 859.957 697C850.545 697 805.043 688.941 805.043 679C805.043 669.059 850.545 661 859.957 661Z" fill="white" fill-opacity="0.8"/>
<path d="M941 626.043C941 635.455 932.941 680.484 923 680.484C913.059 680.484 905 635.455 905 626.043C905 616.63 913.059 609 923 609C932.941 609 941 616.63 941 626.043Z" fill="white" fill-opacity="0.8"/>
<path d="M941 680.957C941 690.37 932.941 698 923 698C913.059 698 905 690.37 905 680.957C905 671.545 913.059 626.042 923 626.042C932.941 626.042 941 671.545 941 680.957Z" fill="white" fill-opacity="0.8"/>
<path d="M943 802.043C943 811.455 934.941 856.484 925 856.484C915.059 856.484 907 811.455 907 802.043C907 792.63 915.059 785 925 785C934.941 785 943 792.63 943 802.043Z" fill="white" fill-opacity="0.8"/>
<path d="M943 856.957C943 866.37 934.941 874 925 874C915.059 874 907 866.37 907 856.957C907 847.545 915.059 802.042 925 802.042C934.941 802.042 943 847.545 943 856.957Z" fill="white" fill-opacity="0.8"/>
<path d="M1000 1037.04C1000 1046.45 991.941 1091.48 982 1091.48C972.059 1091.48 964 1046.45 964 1037.04C964 1027.63 972.059 1020 982 1020C991.941 1020 1000 1027.63 1000 1037.04Z" fill="white" fill-opacity="0.8"/>
<path d="M1000 1091.96C1000 1101.37 991.941 1109 982 1109C972.059 1109 964 1101.37 964 1091.96C964 1082.55 972.059 1037.04 982 1037.04C991.941 1037.04 1000 1082.55 1000 1091.96Z" fill="white" fill-opacity="0.8"/>
<path d="M1061 503.043C1061 512.455 1052.94 557.484 1043 557.484C1033.06 557.484 1025 512.455 1025 503.043C1025 493.63 1033.06 486 1043 486C1052.94 486 1061 493.63 1061 503.043Z" fill="white" fill-opacity="0.8"/>
<path d="M1061 557.957C1061 567.37 1052.94 575 1043 575C1033.06 575 1025 567.37 1025 557.957C1025 548.545 1033.06 503.042 1043 503.042C1052.94 503.042 1061 548.545 1061 557.957Z" fill="white" fill-opacity="0.8"/>
<path d="M1120 503.043C1120 512.455 1111.94 557.484 1102 557.484C1092.06 557.484 1084 512.455 1084 503.043C1084 493.63 1092.06 486 1102 486C1111.94 486 1120 493.63 1120 503.043Z" fill="white" fill-opacity="0.8"/>
<path d="M1120 557.957C1120 567.37 1111.94 575 1102 575C1092.06 575 1084 567.37 1084 557.957C1084 548.545 1092.06 503.042 1102 503.042C1111.94 503.042 1120 548.545 1120 557.957Z" fill="white" fill-opacity="0.8"/>
<path d="M1118 567.043C1118 576.455 1109.94 621.484 1100 621.484C1090.06 621.484 1082 576.455 1082 567.043C1082 557.63 1090.06 550 1100 550C1109.94 550 1118 557.63 1118 567.043Z" fill="white" fill-opacity="0.8"/>
<path d="M1118 621.957C1118 631.37 1109.94 639 1100 639C1090.06 639 1082 631.37 1082 621.957C1082 612.545 1090.06 567.042 1100 567.042C1109.94 567.042 1118 612.545 1118 621.957Z" fill="white" fill-opacity="0.8"/>
<path d="M878 678.043C878 687.455 869.941 732.484 860 732.484C850.059 732.484 842 687.455 842 678.043C842 668.63 850.059 661 860 661C869.941 661 878 668.63 878 678.043Z" fill="white" fill-opacity="0.8"/>
<path d="M878 732.957C878 742.37 869.941 750 860 750C850.059 750 842 742.37 842 732.957C842 723.545 850.059 678.042 860 678.042C869.941 678.042 878 723.545 878 732.957Z" fill="white" fill-opacity="0.8"/>
<path d="M1060 629.043C1060 638.455 1051.94 683.484 1042 683.484C1032.06 683.484 1024 638.455 1024 629.043C1024 619.63 1032.06 612 1042 612C1051.94 612 1060 619.63 1060 629.043Z" fill="white" fill-opacity="0.8"/>
<path d="M1060 683.957C1060 693.37 1051.94 701 1042 701C1032.06 701 1024 693.37 1024 683.957C1024 674.545 1032.06 629.042 1042 629.042C1051.94 629.042 1060 674.545 1060 683.957Z" fill="white" fill-opacity="0.8"/>
<path d="M625 309C634.941 309 682.5 317.059 682.5 327C682.5 336.941 634.941 345 625 345C615.059 345 607 336.941 607 327C607 317.059 615.059 309 625 309Z" fill="white" fill-opacity="0.8"/>
<path d="M683 309C692.941 309 701 317.059 701 327C701 336.941 692.941 345 683 345C673.059 345 625 336.941 625 327C625 317.059 673.059 309 683 309Z" fill="white" fill-opacity="0.8"/>
<path d="M511 124C520.941 124 568.5 132.059 568.5 142C568.5 151.941 520.941 160 511 160C501.059 160 493 151.941 493 142C493 132.059 501.059 124 511 124Z" fill="white" fill-opacity="0.8"/>
<path d="M569 124C578.941 124 587 132.059 587 142C587 151.941 578.941 160 569 160C559.059 160 511 151.941 511 142C511 132.059 559.059 124 569 124Z" fill="white" fill-opacity="0.8"/>
<path d="M568 178C577.941 178 625.5 186.059 625.5 196C625.5 205.941 577.941 214 568 214C558.059 214 550 205.941 550 196C550 186.059 558.059 178 568 178Z" fill="white" fill-opacity="0.8"/>
<path d="M626 178C635.941 178 644 186.059 644 196C644 205.941 635.941 214 626 214C616.059 214 568 205.941 568 196C568 186.059 616.059 178 626 178Z" fill="white" fill-opacity="0.8"/>
<path d="M630 124C639.941 124 687.5 132.059 687.5 142C687.5 151.941 639.941 160 630 160C620.059 160 612 151.941 612 142C612 132.059 620.059 124 630 124Z" fill="white" fill-opacity="0.8"/>
<path d="M688 124C697.941 124 706 132.059 706 142C706 151.941 697.941 160 688 160C678.059 160 630 151.941 630 142C630 132.059 678.059 124 688 124Z" fill="white" fill-opacity="0.8"/>
<path d="M84 365C93.9411 365 141.5 373.059 141.5 383C141.5 392.941 93.9411 401 84 401C74.0589 401 66 392.941 66 383C66 373.059 74.0589 365 84 365Z" fill="white" fill-opacity="0.8"/>
<path d="M142 365C151.941 365 160 373.059 160 383C160 392.941 151.941 401 142 401C132.059 401 84 392.941 84 383C84 373.059 132.059 365 142 365Z" fill="white" fill-opacity="0.8"/>
<path d="M144 844C153.941 844 201.5 852.059 201.5 862C201.5 871.941 153.941 880 144 880C134.059 880 126 871.941 126 862C126 852.059 134.059 844 144 844Z" fill="white" fill-opacity="0.8"/>
<path d="M202 844C211.941 844 220 852.059 220 862C220 871.941 211.941 880 202 880C192.059 880 144 871.941 144 862C144 852.059 192.059 844 202 844Z" fill="white" fill-opacity="0.8"/>
<path d="M145 606C154.941 606 202.5 614.059 202.5 624C202.5 633.941 154.941 642 145 642C135.059 642 127 633.941 127 624C127 614.059 135.059 606 145 606Z" fill="white" fill-opacity="0.8"/>
<path d="M203 606C212.941 606 221 614.059 221 624C221 633.941 212.941 642 203 642C193.059 642 145 633.941 145 624C145 614.059 193.059 606 203 606Z" fill="white" fill-opacity="0.8"/>
<path d="M84 425C93.9411 425 141.5 433.059 141.5 443C141.5 452.941 93.9411 461 84 461C74.0589 461 66 452.941 66 443C66 433.059 74.0589 425 84 425Z" fill="white" fill-opacity="0.8"/>
<path d="M142 425C151.941 425 160 433.059 160 443C160 452.941 151.941 461 142 461C132.059 461 84 452.941 84 443C84 433.059 132.059 425 142 425Z" fill="white" fill-opacity="0.8"/>
<path d="M144 904C153.941 904 201.5 912.059 201.5 922C201.5 931.941 153.941 940 144 940C134.059 940 126 931.941 126 922C126 912.059 134.059 904 144 904Z" fill="white" fill-opacity="0.8"/>
<path d="M202 904C211.941 904 220 912.059 220 922C220 931.941 211.941 940 202 940C192.059 940 144 931.941 144 922C144 912.059 192.059 904 202 904Z" fill="white" fill-opacity="0.8"/>
<path d="M144 962C153.941 962 201.5 970.059 201.5 980C201.5 989.941 153.941 998 144 998C134.059 998 126 989.941 126 980C126 970.059 134.059 962 144 962Z" fill="white" fill-opacity="0.8"/>
<path d="M202 962C211.941 962 220 970.059 220 980C220 989.941 211.941 998 202 998C192.059 998 144 989.941 144 980C144 970.059 192.059 962 202 962Z" fill="white" fill-opacity="0.8"/>
<path d="M145 666C154.941 666 202.5 674.059 202.5 684C202.5 693.941 154.941 702 145 702C135.059 702 127 693.941 127 684C127 674.059 135.059 666 145 666Z" fill="white" fill-opacity="0.8"/>
<path d="M203 666C212.941 666 221 674.059 221 684C221 693.941 212.941 702 203 702C193.059 702 145 693.941 145 684C145 674.059 193.059 666 203 666Z" fill="white" fill-opacity="0.8"/>
<path d="M29 480C38.9411 480 86.5 488.059 86.5 498C86.5 507.941 38.9411 516 29 516C19.0589 516 11 507.941 11 498C11 488.059 19.0589 480 29 480Z" fill="white" fill-opacity="0.8"/>
<path d="M87 480C96.9411 480 105 488.059 105 498C105 507.941 96.9411 516 87 516C77.0589 516 29 507.941 29 498C29 488.059 77.0589 480 87 480Z" fill="white" fill-opacity="0.8"/>
<path d="M90 721C99.9411 721 147.5 729.059 147.5 739C147.5 748.941 99.9411 757 90 757C80.0589 757 72 748.941 72 739C72 729.059 80.0589 721 90 721Z" fill="white" fill-opacity="0.8"/>
<path d="M148 721C157.941 721 166 729.059 166 739C166 748.941 157.941 757 148 757C138.059 757 90 748.941 90 739C90 729.059 138.059 721 148 721Z" fill="white" fill-opacity="0.8"/>
<path d="M29 543C38.9411 543 86.5 551.059 86.5 561C86.5 570.941 38.9411 579 29 579C19.0589 579 11 570.941 11 561C11 551.059 19.0589 543 29 543Z" fill="white" fill-opacity="0.8"/>
<path d="M87 543C96.9411 543 105 551.059 105 561C105 570.941 96.9411 579 87 579C77.0589 579 29 570.941 29 561C29 551.059 77.0589 543 87 543Z" fill="white" fill-opacity="0.8"/>
<path d="M90 784C99.9411 784 147.5 792.059 147.5 802C147.5 811.941 99.9411 820 90 820C80.0589 820 72 811.941 72 802C72 792.059 80.0589 784 90 784Z" fill="white" fill-opacity="0.8"/>
<path d="M148 784C157.941 784 166 792.059 166 802C166 811.941 157.941 820 148 820C138.059 820 90 811.941 90 802C90 792.059 138.059 784 148 784Z" fill="white" fill-opacity="0.8"/>
<path d="M804 63C813.941 63 861.5 71.0589 861.5 81C861.5 90.9411 813.941 99 804 99C794.059 99 786 90.9411 786 81C786 71.0589 794.059 63 804 63Z" fill="white" fill-opacity="0.8"/>
<path d="M862 63C871.941 63 880 71.0589 880 81C880 90.9411 871.941 99 862 99C852.059 99 804 90.9411 804 81C804 71.0589 852.059 63 862 63Z" fill="white" fill-opacity="0.8"/>
<path d="M619 488C628.941 488 676.5 496.059 676.5 506C676.5 515.941 628.941 524 619 524C609.059 524 601 515.941 601 506C601 496.059 609.059 488 619 488Z" fill="white" fill-opacity="0.8"/>
<path d="M677 488C686.941 488 695 496.059 695 506C695 515.941 686.941 524 677 524C667.059 524 619 515.941 619 506C619 496.059 667.059 488 677 488Z" fill="white" fill-opacity="0.8"/>
<path d="M563 785C572.941 785 620.5 793.059 620.5 803C620.5 812.941 572.941 821 563 821C553.059 821 545 812.941 545 803C545 793.059 553.059 785 563 785Z" fill="white" fill-opacity="0.8"/>
<path d="M621 785C630.941 785 639 793.059 639 803C639 812.941 630.941 821 621 821C611.059 821 563 812.941 563 803C563 793.059 611.059 785 621 785Z" fill="white" fill-opacity="0.8"/>
<path d="M623 364C632.941 364 680.5 372.059 680.5 382C680.5 391.941 632.941 400 623 400C613.059 400 605 391.941 605 382C605 372.059 613.059 364 623 364Z" fill="white" fill-opacity="0.8"/>
<path d="M681 364C690.941 364 699 372.059 699 382C699 391.941 690.941 400 681 400C671.059 400 623 391.941 623 382C623 372.059 671.059 364 681 364Z" fill="white" fill-opacity="0.8"/>
<path d="M507 364C516.941 364 564.5 372.059 564.5 382C564.5 391.941 516.941 400 507 400C497.059 400 489 391.941 489 382C489 372.059 497.059 364 507 364Z" fill="white" fill-opacity="0.8"/>
<path d="M565 364C574.941 364 583 372.059 583 382C583 391.941 574.941 400 565 400C555.059 400 507 391.941 507 382C507 372.059 555.059 364 565 364Z" fill="white" fill-opacity="0.8"/>
<path d="M923 184C932.941 184 980.5 192.059 980.5 202C980.5 211.941 932.941 220 923 220C913.059 220 905 211.941 905 202C905 192.059 913.059 184 923 184Z" fill="white" fill-opacity="0.8"/>
<path d="M981 184C990.941 184 999 192.059 999 202C999 211.941 990.941 220 981 220C971.059 220 923 211.941 923 202C923 192.059 971.059 184 981 184Z" fill="white" fill-opacity="0.8"/>
<path d="M985 242C994.941 242 1042.5 250.059 1042.5 260C1042.5 269.941 994.941 278 985 278C975.059 278 967 269.941 967 260C967 250.059 975.059 242 985 242Z" fill="white" fill-opacity="0.8"/>
<path d="M1043 242C1052.94 242 1061 250.059 1061 260C1061 269.941 1052.94 278 1043 278C1033.06 278 985 269.941 985 260C985 250.059 1033.06 242 1043 242Z" fill="white" fill-opacity="0.8"/>
<path d="M1163 419C1172.94 419 1220.5 427.059 1220.5 437C1220.5 446.941 1172.94 455 1163 455C1153.06 455 1145 446.941 1145 437C1145 427.059 1153.06 419 1163 419Z" fill="white" fill-opacity="0.8"/>
<path d="M1221 419C1230.94 419 1239 427.059 1239 437C1239 446.941 1230.94 455 1221 455C1211.06 455 1163 446.941 1163 437C1163 427.059 1211.06 419 1221 419Z" fill="white" fill-opacity="0.8"/>
<path d="M1163 608C1172.94 608 1220.5 616.059 1220.5 626C1220.5 635.941 1172.94 644 1163 644C1153.06 644 1145 635.941 1145 626C1145 616.059 1153.06 608 1163 608Z" fill="white" fill-opacity="0.8"/>
<path d="M1221 608C1230.94 608 1239 616.059 1239 626C1239 635.941 1230.94 644 1221 644C1211.06 644 1163 635.941 1163 626C1163 616.059 1211.06 608 1221 608Z" fill="white" fill-opacity="0.8"/>
<path d="M1109 720C1118.94 720 1166.5 728.059 1166.5 738C1166.5 747.941 1118.94 756 1109 756C1099.06 756 1091 747.941 1091 738C1091 728.059 1099.06 720 1109 720Z" fill="white" fill-opacity="0.8"/>
<path d="M1167 720C1176.94 720 1185 728.059 1185 738C1185 747.941 1176.94 756 1167 756C1157.06 756 1109 747.941 1109 738C1109 728.059 1157.06 720 1167 720Z" fill="white" fill-opacity="0.8"/>
<path d="M1039 1022C1048.94 1022 1096.5 1030.06 1096.5 1040C1096.5 1049.94 1048.94 1058 1039 1058C1029.06 1058 1021 1049.94 1021 1040C1021 1030.06 1029.06 1022 1039 1022Z" fill="white" fill-opacity="0.8"/>
<path d="M1097 1022C1106.94 1022 1115 1030.06 1115 1040C1115 1049.94 1106.94 1058 1097 1058C1087.06 1058 1039 1049.94 1039 1040C1039 1030.06 1087.06 1022 1097 1022Z" fill="white" fill-opacity="0.8"/>
<path d="M1161 784C1170.94 784 1218.5 792.059 1218.5 802C1218.5 811.941 1170.94 820 1161 820C1151.06 820 1143 811.941 1143 802C1143 792.059 1151.06 784 1161 784Z" fill="white" fill-opacity="0.8"/>
<path d="M1219 784C1228.94 784 1237 792.059 1237 802C1237 811.941 1228.94 820 1219 820C1209.06 820 1161 811.941 1161 802C1161 792.059 1209.06 784 1219 784Z" fill="white" fill-opacity="0.8"/>
<path d="M1161 839C1170.94 839 1218.5 847.059 1218.5 857C1218.5 866.941 1170.94 875 1161 875C1151.06 875 1143 866.941 1143 857C1143 847.059 1151.06 839 1161 839Z" fill="white" fill-opacity="0.8"/>
<path d="M1219 839C1228.94 839 1237 847.059 1237 857C1237 866.941 1228.94 875 1219 875C1209.06 875 1161 866.941 1161 857C1161 847.059 1209.06 839 1219 839Z" fill="white" fill-opacity="0.8"/>
<path d="M1105 963C1114.94 963 1162.5 971.059 1162.5 981C1162.5 990.941 1114.94 999 1105 999C1095.06 999 1087 990.941 1087 981C1087 971.059 1095.06 963 1105 963Z" fill="white" fill-opacity="0.8"/>
<path d="M1163 963C1172.94 963 1181 971.059 1181 981C1181 990.941 1172.94 999 1163 999C1153.06 999 1105 990.941 1105 981C1105 971.059 1153.06 963 1163 963Z" fill="white" fill-opacity="0.8"/>
<path d="M804 482C813.941 482 861.5 490.059 861.5 500C861.5 509.941 813.941 518 804 518C794.059 518 786 509.941 786 500C786 490.059 794.059 482 804 482Z" fill="white" fill-opacity="0.8"/>
<path d="M862 482C871.941 482 880 490.059 880 500C880 509.941 871.941 518 862 518C852.059 518 804 509.941 804 500C804 490.059 852.059 482 862 482Z" fill="white" fill-opacity="0.8"/>
<path d="M941 82C941 91.9411 932.941 139.5 923 139.5C913.059 139.5 905 91.9411 905 82C905 72.0589 913.059 64 923 64C932.941 64 941 72.0589 941 82Z" fill="white" fill-opacity="0.8"/>
<path d="M941 140C941 149.941 932.941 158 923 158C913.059 158 905 149.941 905 140C905 130.059 913.059 82 923 82C932.941 82 941 130.059 941 140Z" fill="white" fill-opacity="0.8"/>
<path d="M1062 316C1062 325.941 1053.94 373.5 1044 373.5C1034.06 373.5 1026 325.941 1026 316C1026 306.059 1034.06 298 1044 298C1053.94 298 1062 306.059 1062 316Z" fill="white" fill-opacity="0.8"/>
<path d="M1062 374C1062 383.941 1053.94 392 1044 392C1034.06 392 1026 383.941 1026 374C1026 364.059 1034.06 316 1044 316C1053.94 316 1062 364.059 1062 374Z" fill="white" fill-opacity="0.8"/>
<path d="M1062 382C1062 391.941 1053.94 439.5 1044 439.5C1034.06 439.5 1026 391.941 1026 382C1026 372.059 1034.06 364 1044 364C1053.94 364 1062 372.059 1062 382Z" fill="white" fill-opacity="0.8"/>
<path d="M1062 440C1062 449.941 1053.94 458 1044 458C1034.06 458 1026 449.941 1026 440C1026 430.059 1034.06 382 1044 382C1053.94 382 1062 430.059 1062 440Z" fill="white" fill-opacity="0.8"/>
<path d="M1004 382C1004 391.941 995.941 439.5 986 439.5C976.059 439.5 968 391.941 968 382C968 372.059 976.059 364 986 364C995.941 364 1004 372.059 1004 382Z" fill="white" fill-opacity="0.8"/>
<path d="M1004 440C1004 449.941 995.941 458 986 458C976.059 458 968 449.941 968 440C968 430.059 976.059 382 986 382C995.941 382 1004 430.059 1004 440Z" fill="white" fill-opacity="0.8"/>
<path d="M1118 316C1118 325.941 1109.94 373.5 1100 373.5C1090.06 373.5 1082 325.941 1082 316C1082 306.059 1090.06 298 1100 298C1109.94 298 1118 306.059 1118 316Z" fill="white" fill-opacity="0.8"/>
<path d="M1118 374C1118 383.941 1109.94 392 1100 392C1090.06 392 1082 383.941 1082 374C1082 364.059 1090.06 316 1100 316C1109.94 316 1118 364.059 1118 374Z" fill="white" fill-opacity="0.8"/>
<path d="M1296 500C1296 509.941 1287.94 557.5 1278 557.5C1268.06 557.5 1260 509.941 1260 500C1260 490.059 1268.06 482 1278 482C1287.94 482 1296 490.059 1296 500Z" fill="white" fill-opacity="0.8"/>
<path d="M1296 558C1296 567.941 1287.94 576 1278 576C1268.06 576 1260 567.941 1260 558C1260 548.059 1268.06 500 1278 500C1287.94 500 1296 548.059 1296 558Z" fill="white" fill-opacity="0.8"/>
<path d="M763 438C763 447.941 754.941 495.5 745 495.5C735.059 495.5 727 447.941 727 438C727 428.059 735.059 420 745 420C754.941 420 763 428.059 763 438Z" fill="white" fill-opacity="0.8"/>
<path d="M763 496C763 505.941 754.941 514 745 514C735.059 514 727 505.941 727 496C727 486.059 735.059 438 745 438C754.941 438 763 486.059 763 496Z" fill="white" fill-opacity="0.8"/>
<path d="M630 178C639.941 178 687.5 186.059 687.5 196C687.5 205.941 639.941 214 630 214C620.059 214 612 205.941 612 196C612 186.059 620.059 178 630 178Z" fill="white" fill-opacity="0.8"/>
<path d="M688 178C697.941 178 706 186.059 706 196C706 205.941 697.941 214 688 214C678.059 214 630 205.941 630 196C630 186.059 678.059 178 688 178Z" fill="white" fill-opacity="0.8"/>
<path d="M746 420C755.941 420 803.5 428.059 803.5 438C803.5 447.941 755.941 456 746 456C736.059 456 728 447.941 728 438C728 428.059 736.059 420 746 420Z" fill="white" fill-opacity="0.8"/>
<path d="M804 420C813.941 420 822 428.059 822 438C822 447.941 813.941 456 804 456C794.059 456 746 447.941 746 438C746 428.059 794.059 420 804 420Z" fill="white" fill-opacity="0.8"/>
<path d="M930 420C939.941 420 987.5 428.059 987.5 438C987.5 447.941 939.941 456 930 456C920.059 456 912 447.941 912 438C912 428.059 920.059 420 930 420Z" fill="white" fill-opacity="0.8"/>
<path d="M988 420C997.941 420 1006 428.059 1006 438C1006 447.941 997.941 456 988 456C978.059 456 930 447.941 930 438C930 428.059 978.059 420 988 420Z" fill="white" fill-opacity="0.8"/>
<path d="M745.5 606C755.441 606 803 614.059 803 624C803 633.941 755.441 642 745.5 642C735.559 642 727.5 633.941 727.5 624C727.5 614.059 735.559 606 745.5 606Z" fill="white" fill-opacity="0.8"/>
<path d="M803.5 606C813.441 606 821.5 614.059 821.5 624C821.5 633.941 813.441 642 803.5 642C793.559 642 745.5 633.941 745.5 624C745.5 614.059 793.559 606 803.5 606Z" fill="white" fill-opacity="0.8"/>
<path d="M727.5 623C727.5 613.059 735.559 565.5 745.5 565.5C755.441 565.5 763.5 613.059 763.5 623C763.5 632.941 755.441 641 745.5 641C735.559 641 727.5 632.941 727.5 623Z" fill="white" fill-opacity="0.8"/>
<path d="M727.5 565C727.5 555.059 735.559 547 745.5 547C755.441 547 763.5 555.059 763.5 565C763.5 574.941 755.441 623 745.5 623C735.559 623 727.5 574.941 727.5 565Z" fill="white" fill-opacity="0.8"/>
<path d="M688 785C697.941 785 745.5 793.059 745.5 803C745.5 812.941 697.941 821 688 821C678.059 821 670 812.941 670 803C670 793.059 678.059 785 688 785Z" fill="white" fill-opacity="0.8"/>
<path d="M746 785C755.941 785 764 793.059 764 803C764 812.941 755.941 821 746 821C736.059 821 688 812.941 688 803C688 793.059 736.059 785 746 785Z" fill="white" fill-opacity="0.8"/>
<path d="M670 802C670 792.059 678.059 744.5 688 744.5C697.941 744.5 706 792.059 706 802C706 811.941 697.941 820 688 820C678.059 820 670 811.941 670 802Z" fill="white" fill-opacity="0.8"/>
<path d="M670 744C670 734.059 678.059 726 688 726C697.941 726 706 734.059 706 744C706 753.941 697.941 802 688 802C678.059 802 670 753.941 670 744Z" fill="white" fill-opacity="0.8"/>
<path d="M802 785C811.941 785 859.5 793.059 859.5 803C859.5 812.941 811.941 821 802 821C792.059 821 784 812.941 784 803C784 793.059 792.059 785 802 785Z" fill="white" fill-opacity="0.8"/>
<path d="M860 785C869.941 785 878 793.059 878 803C878 812.941 869.941 821 860 821C850.059 821 802 812.941 802 803C802 793.059 850.059 785 860 785Z" fill="white" fill-opacity="0.8"/>
<path d="M784 802C784 792.059 792.059 744.5 802 744.5C811.941 744.5 820 792.059 820 802C820 811.941 811.941 820 802 820C792.059 820 784 811.941 784 802Z" fill="white" fill-opacity="0.8"/>
<path d="M784 744C784 734.059 792.059 726 802 726C811.941 726 820 734.059 820 744C820 753.941 811.941 802 802 802C792.059 802 784 753.941 784 744Z" fill="white" fill-opacity="0.8"/>
<circle cx="684" cy="1166" r="18" transform="rotate(-180 684 1166)" fill="white" fill-opacity="0.8"/>
<path d="M788 1171C788 1161.06 796.059 1153 806 1153C815.941 1153 824 1161.06 824 1171C824 1180.94 815.941 1229 806 1229C796.059 1229 788 1180.94 788 1171Z" fill="white" fill-opacity="0.8"/>
<path d="M740.957 1245C731.545 1245 686.516 1236.94 686.516 1227C686.516 1217.06 731.545 1209 740.957 1209C750.37 1209 758 1217.06 758 1227C758 1236.94 750.37 1245 740.957 1245Z" fill="white" fill-opacity="0.8"/>
<path d="M686.043 1245C676.63 1245 669 1236.94 669 1227C669 1217.06 676.63 1209 686.043 1209C695.455 1209 740.957 1217.06 740.957 1227C740.957 1236.94 695.455 1245 686.043 1245Z" fill="white" fill-opacity="0.8"/>
<path d="M678.957 1245C669.545 1245 624.516 1236.94 624.516 1227C624.516 1217.06 669.545 1209 678.957 1209C688.37 1209 696 1217.06 696 1227C696 1236.94 688.37 1245 678.957 1245Z" fill="white" fill-opacity="0.8"/>
<path d="M624.043 1245C614.63 1245 607 1236.94 607 1227C607 1217.06 614.63 1209 624.043 1209C633.455 1209 678.957 1217.06 678.957 1227C678.957 1236.94 633.455 1245 624.043 1245Z" fill="white" fill-opacity="0.8"/>
<path d="M621.957 1245C612.545 1245 567.516 1236.94 567.516 1227C567.516 1217.06 612.545 1209 621.957 1209C631.37 1209 639 1217.06 639 1227C639 1236.94 631.37 1245 621.957 1245Z" fill="white" fill-opacity="0.8"/>
<path d="M567.043 1245C557.63 1245 550 1236.94 550 1227C550 1217.06 557.63 1209 567.043 1209C576.455 1209 621.957 1217.06 621.957 1227C621.957 1236.94 576.455 1245 567.043 1245Z" fill="white" fill-opacity="0.8"/>
<path d="M549 1227.96C549 1218.55 557.059 1173.52 567 1173.52C576.941 1173.52 585 1218.55 585 1227.96C585 1237.37 576.941 1245 567 1245C557.059 1245 549 1237.37 549 1227.96Z" fill="white" fill-opacity="0.8"/>
<path d="M549 1173.04C549 1163.63 557.059 1156 567 1156C576.941 1156 585 1163.63 585 1173.04C585 1182.45 576.941 1227.96 567 1227.96C557.059 1227.96 549 1182.45 549 1173.04Z" fill="white" fill-opacity="0.8"/>
<path d="M485 1227.96C485 1218.55 493.059 1173.52 503 1173.52C512.941 1173.52 521 1218.55 521 1227.96C521 1237.37 512.941 1245 503 1245C493.059 1245 485 1237.37 485 1227.96Z" fill="white" fill-opacity="0.8"/>
<path d="M485 1173.04C485 1163.63 493.059 1156 503 1156C512.941 1156 521 1163.63 521 1173.04C521 1182.45 512.941 1227.96 503 1227.96C493.059 1227.96 485 1182.45 485 1173.04Z" fill="white" fill-opacity="0.8"/>
<path d="M739 1121C729.059 1121 681.5 1112.94 681.5 1103C681.5 1093.06 729.059 1085 739 1085C748.941 1085 757 1093.06 757 1103C757 1112.94 748.941 1121 739 1121Z" fill="white" fill-opacity="0.8"/>
<path d="M681 1121C671.059 1121 663 1112.94 663 1103C663 1093.06 671.059 1085 681 1085C690.941 1085 739 1093.06 739 1103C739 1112.94 690.941 1121 681 1121Z" fill="white" fill-opacity="0.8"/>
<path d="M757 1104C757 1113.94 748.941 1161.5 739 1161.5C729.059 1161.5 721 1113.94 721 1104C721 1094.06 729.059 1086 739 1086C748.941 1086 757 1094.06 757 1104Z" fill="white" fill-opacity="0.8"/>
<path d="M757 1162C757 1171.94 748.941 1180 739 1180C729.059 1180 721 1171.94 721 1162C721 1152.06 729.059 1104 739 1104C748.941 1104 757 1152.06 757 1162Z" fill="white" fill-opacity="0.8"/>
<path d="M324 1001C314.059 1001 266.5 992.941 266.5 983C266.5 973.059 314.059 965 324 965C333.941 965 342 973.059 342 983C342 992.941 333.941 1001 324 1001Z" fill="white" fill-opacity="0.8"/>
<path d="M266 1001C256.059 1001 248 992.941 248 983C248 973.059 256.059 965 266 965C275.941 965 324 973.059 324 983C324 992.941 275.941 1001 266 1001Z" fill="white" fill-opacity="0.8"/>
<path d="M342 984C342 993.941 333.941 1041.5 324 1041.5C314.059 1041.5 306 993.941 306 984C306 974.059 314.059 966 324 966C333.941 966 342 974.059 342 984Z" fill="white" fill-opacity="0.8"/>
<path d="M342 1042C342 1051.94 333.941 1060 324 1060C314.059 1060 306 1051.94 306 1042C306 1032.06 314.059 984 324 984C333.941 984 342 1032.06 342 1042Z" fill="white" fill-opacity="0.8"/>
<path d="M625 1121C615.059 1121 567.5 1112.94 567.5 1103C567.5 1093.06 615.059 1085 625 1085C634.941 1085 643 1093.06 643 1103C643 1112.94 634.941 1121 625 1121Z" fill="white" fill-opacity="0.8"/>
<path d="M567 1121C557.059 1121 549 1112.94 549 1103C549 1093.06 557.059 1085 567 1085C576.941 1085 625 1093.06 625 1103C625 1112.94 576.941 1121 567 1121Z" fill="white" fill-opacity="0.8"/>
<path d="M643 1104C643 1113.94 634.941 1161.5 625 1161.5C615.059 1161.5 607 1113.94 607 1104C607 1094.06 615.059 1086 625 1086C634.941 1086 643 1094.06 643 1104Z" fill="white" fill-opacity="0.8"/>
<path d="M643 1162C643 1171.94 634.941 1180 625 1180C615.059 1180 607 1171.94 607 1162C607 1152.06 615.059 1104 625 1104C634.941 1104 643 1152.06 643 1162Z" fill="white" fill-opacity="0.8"/>
<path d="M1002 625C1002 634.941 993.941 682.5 984 682.5C974.059 682.5 966 634.941 966 625C966 615.059 974.059 607 984 607C993.941 607 1002 615.059 1002 625Z" fill="white" fill-opacity="0.8"/>
<path d="M1002 683C1002 692.941 993.941 701 984 701C974.059 701 966 692.941 966 683C966 673.059 974.059 625 984 625C993.941 625 1002 673.059 1002 683Z" fill="white" fill-opacity="0.8"/>
<path d="M985 607C994.941 607 1042.5 615.059 1042.5 625C1042.5 634.941 994.941 643 985 643C975.059 643 967 634.941 967 625C967 615.059 975.059 607 985 607Z" fill="white" fill-opacity="0.8"/>
<path d="M1043 607C1052.94 607 1061 615.059 1061 625C1061 634.941 1052.94 643 1043 643C1033.06 643 985 634.941 985 625C985 615.059 1033.06 607 1043 607Z" fill="white" fill-opacity="0.8"/>
<path d="M1059 923C1059 932.941 1050.94 980.5 1041 980.5C1031.06 980.5 1023 932.941 1023 923C1023 913.059 1031.06 905 1041 905C1050.94 905 1059 913.059 1059 923Z" fill="white" fill-opacity="0.8"/>
<path d="M1059 981C1059 990.941 1050.94 999 1041 999C1031.06 999 1023 990.941 1023 981C1023 971.059 1031.06 923 1041 923C1050.94 923 1059 971.059 1059 981Z" fill="white" fill-opacity="0.8"/>
<path d="M1042 905C1051.94 905 1099.5 913.059 1099.5 923C1099.5 932.941 1051.94 941 1042 941C1032.06 941 1024 932.941 1024 923C1024 913.059 1032.06 905 1042 905Z" fill="white" fill-opacity="0.8"/>
<path d="M1100 905C1109.94 905 1118 913.059 1118 923C1118 932.941 1109.94 941 1100 941C1090.06 941 1042 932.941 1042 923C1042 913.059 1090.06 905 1100 905Z" fill="white" fill-opacity="0.8"/>
<path d="M1099.5 665.5C1109.44 665.5 1157 673.559 1157 683.5C1157 693.441 1109.44 701.5 1099.5 701.5C1089.56 701.5 1081.5 693.441 1081.5 683.5C1081.5 673.559 1089.56 665.5 1099.5 665.5Z" fill="white" fill-opacity="0.8"/>
<path d="M1157.5 665.5C1167.44 665.5 1175.5 673.559 1175.5 683.5C1175.5 693.441 1167.44 701.5 1157.5 701.5C1147.56 701.5 1099.5 693.441 1099.5 683.5C1099.5 673.559 1147.56 665.5 1157.5 665.5Z" fill="white" fill-opacity="0.8"/>
<path d="M1081.5 682.5C1081.5 672.559 1089.56 625 1099.5 625C1109.44 625 1117.5 672.559 1117.5 682.5C1117.5 692.441 1109.44 700.5 1099.5 700.5C1089.56 700.5 1081.5 692.441 1081.5 682.5Z" fill="white" fill-opacity="0.8"/>
<path d="M1081.5 624.5C1081.5 614.559 1089.56 606.5 1099.5 606.5C1109.44 606.5 1117.5 614.559 1117.5 624.5C1117.5 634.441 1109.44 682.5 1099.5 682.5C1089.56 682.5 1081.5 634.441 1081.5 624.5Z" fill="white" fill-opacity="0.8"/>
<path d="M569 420C578.941 420 626.5 428.059 626.5 438C626.5 447.941 578.941 456 569 456C559.059 456 551 447.941 551 438C551 428.059 559.059 420 569 420Z" fill="white" fill-opacity="0.8"/>
<path d="M627 420C636.941 420 645 428.059 645 438C645 447.941 636.941 456 627 456C617.059 456 569 447.941 569 438C569 428.059 617.059 420 627 420Z" fill="white" fill-opacity="0.8"/>
<path d="M505 721C514.941 721 562.5 729.059 562.5 739C562.5 748.941 514.941 757 505 757C495.059 757 487 748.941 487 739C487 729.059 495.059 721 505 721Z" fill="white" fill-opacity="0.8"/>
<path d="M563 721C572.941 721 581 729.059 581 739C581 748.941 572.941 757 563 757C553.059 757 505 748.941 505 739C505 729.059 553.059 721 563 721Z" fill="white" fill-opacity="0.8"/>
<path d="M342 1101C342 1110.94 333.941 1162 324 1162C314.059 1162 306 1110.94 306 1101C306 1091.06 314.059 1083 324 1083C333.941 1083 342 1091.06 342 1101Z" fill="white" fill-opacity="0.8"/>
<path d="M286 1100C286 1112.7 275.703 1123 263 1123C250.297 1123 207.5 1112.7 207.5 1100C207.5 1087.3 250.297 1077 263 1077C275.703 1077 286 1087.3 286 1100Z" fill="white" fill-opacity="0.8"/>
<circle cx="264" cy="1159" r="18" fill="white" fill-opacity="0.8"/>
<path d="M265 1101C265 1110.94 213.941 1119 204 1119C194.059 1119 186 1110.94 186 1101C186 1091.06 194.059 1083 204 1083C213.941 1083 265 1091.06 265 1101Z" fill="white" fill-opacity="0.8"/>
<path d="M342 1159C342 1168.94 333.941 1177 324 1177C314.059 1177 306 1168.94 306 1159C306 1149.06 314.059 1105 324 1105C333.941 1105 342 1149.06 342 1159Z" fill="white" fill-opacity="0.8"/>
<path d="M342 1159C342 1168.94 333.941 1177 324 1177C314.059 1177 306 1168.94 306 1159C306 1149.06 314.059 1105 324 1105C333.941 1105 342 1149.06 342 1159Z" fill="white" fill-opacity="0.8"/>
<path d="M342 1159C342 1168.94 333.941 1177 324 1177C314.059 1177 306 1168.94 306 1159C306 1149.06 314.059 1105 324 1105C333.941 1105 342 1149.06 342 1159Z" fill="white" fill-opacity="0.8"/>
<circle cx="326" cy="82" r="18" fill="white" fill-opacity="0.8"/>
<circle cx="622" cy="1279" r="18" fill="white" fill-opacity="0.8"/>
<circle cx="681" cy="1279" r="18" fill="white" fill-opacity="0.8"/>
<path d="M749 1294C739.059 1294 731 1285.94 731 1276C731 1266.06 739.059 1258 749 1258C758.941 1258 807 1266.06 807 1276C807 1285.94 758.941 1294 749 1294Z" fill="white" fill-opacity="0.8"/>
</svg>
