<svg width="23" height="24" viewBox="0 0 23 24" fill="none" xmlns="http://www.w3.org/2000/svg">
<path d="M11.4997 9C12.0268 9 12.458 8.55 12.458 8V6H14.3747C14.9018 6 15.333 5.55 15.333 5C15.333 4.45 14.9018 4 14.3747 4H12.458V2C12.458 1.45 12.0268 1 11.4997 1C10.9726 1 10.5413 1.45 10.5413 2V4H8.62467C8.09759 4 7.66634 4.45 7.66634 5C7.66634 5.55 8.09759 6 8.62467 6H10.5413V8C10.5413 8.55 10.9726 9 11.4997 9ZM6.70801 18C5.65384 18 4.80092 18.9 4.80092 20C4.80092 21.1 5.65384 22 6.70801 22C7.76217 22 8.62467 21.1 8.62467 20C8.62467 18.9 7.76217 18 6.70801 18ZM16.2913 18C15.2372 18 14.3843 18.9 14.3843 20C14.3843 21.1 15.2372 22 16.2913 22C17.3455 22 18.208 21.1 18.208 20C18.208 18.9 17.3455 18 16.2913 18ZM7.76218 13H14.9018C15.6205 13 16.253 12.59 16.5788 11.97L19.818 5.84C20.0768 5.36 19.9043 4.75 19.4443 4.48C18.9843 4.22 18.3997 4.39 18.1505 4.87L14.9018 11H8.17426L4.35051 2.57C4.19717 2.22 3.85217 2 3.48801 2H1.91634C1.38926 2 0.958008 2.45 0.958008 3C0.958008 3.55 1.38926 4 1.91634 4H2.87467L6.32467 11.59L5.03092 14.03C4.33134 15.37 5.25134 17 6.70801 17H17.2497C17.7768 17 18.208 16.55 18.208 16C18.208 15.45 17.7768 15 17.2497 15H6.70801L7.76218 13Z" fill="#BAC6E0"/>
</svg>
