<svg width="19" height="21" viewBox="0 0 19 21" fill="none" xmlns="http://www.w3.org/2000/svg">
<path d="M2.02323 17.1548C2.02323 17.5697 2.35839 17.9048 2.77323 17.9048H16.2264C16.6412 17.9048 16.9764 17.5697 16.9764 17.1548V11.6939C16.9764 7.56419 13.6295 4.21732 9.49979 4.21732C5.37011 4.21732 2.02323 7.56419 2.02323 11.6939V17.1548ZM3.71073 11.6939C3.71073 8.497 6.30292 5.90482 9.49979 5.90482C12.6967 5.90482 15.2889 8.497 15.2889 11.6939V16.2173H6.96854V12.2095C6.96854 12.0806 6.86308 11.9751 6.73417 11.9751H5.70292C5.57401 11.9751 5.46854 12.0806 5.46854 12.2095V16.2173H3.71073V11.6939ZM2.58339 5.77591L3.51151 4.84778C3.58417 4.77513 3.58417 4.6556 3.51151 4.58294L1.92011 2.99153C1.88487 2.95664 1.83728 2.93707 1.78768 2.93707C1.73809 2.93707 1.6905 2.95664 1.65526 2.99153L0.727137 3.91966C0.692243 3.9549 0.672668 4.00249 0.672668 4.05208C0.672668 4.10167 0.692243 4.14926 0.727137 4.1845L2.31854 5.77591C2.3912 5.84857 2.50839 5.84857 2.58339 5.77591ZM18.2771 3.91966L17.349 2.99153C17.3138 2.95664 17.2662 2.93707 17.2166 2.93707C17.167 2.93707 17.1194 2.95664 17.0842 2.99153L15.4928 4.58294C15.4579 4.61818 15.4383 4.66577 15.4383 4.71536C15.4383 4.76496 15.4579 4.81254 15.4928 4.84778L16.4209 5.77591C16.4935 5.84857 16.6131 5.84857 16.6857 5.77591L18.2771 4.1845C18.3498 4.1095 18.3498 3.99232 18.2771 3.91966ZM16.9998 19.4048H1.99979C1.58495 19.4048 1.24979 19.74 1.24979 20.1548V20.7173C1.24979 20.8204 1.33417 20.9048 1.43729 20.9048H17.5623C17.6654 20.9048 17.7498 20.8204 17.7498 20.7173V20.1548C17.7498 19.74 17.4146 19.4048 16.9998 19.4048ZM8.84354 2.71732H10.156C10.2592 2.71732 10.3435 2.63294 10.3435 2.52982V0.279816C10.3435 0.176691 10.2592 0.0923157 10.156 0.0923157H8.84354C8.74042 0.0923157 8.65605 0.176691 8.65605 0.279816V2.52982C8.65605 2.63294 8.74042 2.71732 8.84354 2.71732Z" fill="#BAC6E0"/>
</svg>
