<svg width="11" height="7" viewBox="0 0 11 7" fill="none" xmlns="http://www.w3.org/2000/svg">
<path d="M0.625622 4.12953L8.86506 4.12953L7.06327 5.93356C6.81928 6.17785 6.81928 6.57248 7.06327 6.81678C7.30727 7.06107 7.70141 7.06107 7.9454 6.81678L10.817 3.94161C11.061 3.69732 11.061 3.30269 10.817 3.05839L7.9454 0.183223C7.70141 -0.0610726 7.30727 -0.0610727 7.06327 0.183222C6.81928 0.427518 6.81928 0.822148 7.06327 1.06644L8.86506 2.87673L0.625622 2.87673C0.28153 2.87673 -6.1785e-07 3.15861 -6.47968e-07 3.50313C-6.78087e-07 3.84765 0.28153 4.12953 0.625622 4.12953Z" fill="#323232"/>
</svg>
