<svg width="23" height="24" viewBox="0 0 23 24" fill="none" xmlns="http://www.w3.org/2000/svg">
<path d="M11.3087 10.9C9.13324 10.31 8.43366 9.7 8.43366 8.75C8.43366 7.66 9.40158 6.9 11.0212 6.9C12.382 6.9 13.0624 7.44 13.3116 8.3C13.4266 8.7 13.7428 9 14.1453 9H14.4328C15.0653 9 15.5157 8.35 15.2953 7.73C14.8928 6.55 13.9537 5.57 12.4587 5.19V4.5C12.4587 3.67 11.8166 3 11.0212 3C10.2257 3 9.58366 3.67 9.58366 4.5V5.16C7.72449 5.58 6.22949 6.84 6.22949 8.77C6.22949 11.08 8.05991 12.23 10.7337 12.9C13.1295 13.5 13.6087 14.38 13.6087 15.31C13.6087 16 13.1391 17.1 11.0212 17.1C9.43991 17.1 8.62533 16.51 8.30908 15.67C8.16533 15.28 7.83949 15 7.44658 15H7.17824C6.53616 15 6.08574 15.68 6.32533 16.3C6.87158 17.69 8.14616 18.51 9.58366 18.83V19.5C9.58366 20.33 10.2257 21 11.0212 21C11.8166 21 12.4587 20.33 12.4587 19.5V18.85C14.3274 18.48 15.8128 17.35 15.8128 15.3C15.8128 12.46 13.4841 11.49 11.3087 10.9Z" fill="#BAC6E0"/>
</svg>
