<svg width="19" height="21" viewBox="0 0 19 21" fill="none" xmlns="http://www.w3.org/2000/svg">
<path d="M13.6249 5.80823V4.68323C13.6249 4.5801 13.5405 4.49573 13.4374 4.49573H4.43741C4.33428 4.49573 4.24991 4.5801 4.24991 4.68323V5.80823C4.24991 5.91135 4.33428 5.99573 4.43741 5.99573H13.4374C13.5405 5.99573 13.6249 5.91135 13.6249 5.80823ZM4.43741 7.87073C4.33428 7.87073 4.24991 7.9551 4.24991 8.05823V9.18323C4.24991 9.28635 4.33428 9.37073 4.43741 9.37073H8.74991C8.85303 9.37073 8.93741 9.28635 8.93741 9.18323V8.05823C8.93741 7.9551 8.85303 7.87073 8.74991 7.87073H4.43741ZM7.81241 18.4645H2.37491V1.96448H15.4999V10.027C15.4999 10.1301 15.5843 10.2145 15.6874 10.2145H16.9999C17.103 10.2145 17.1874 10.1301 17.1874 10.027V1.02698C17.1874 0.612134 16.8523 0.276978 16.4374 0.276978H1.43741C1.02256 0.276978 0.687408 0.612134 0.687408 1.02698V19.402C0.687408 19.8168 1.02256 20.152 1.43741 20.152H7.81241C7.91553 20.152 7.99991 20.0676 7.99991 19.9645V18.652C7.99991 18.5489 7.91553 18.4645 7.81241 18.4645ZM18.2585 19.6715L16.0718 17.4848C16.5944 16.7934 16.9062 15.9309 16.9062 14.9957C16.9062 12.7176 15.0593 10.8707 12.7812 10.8707C10.503 10.8707 8.65616 12.7176 8.65616 14.9957C8.65616 17.2739 10.503 19.1207 12.7812 19.1207C13.6202 19.1207 14.3983 18.8699 15.0499 18.441L17.2694 20.6606C17.3069 20.6981 17.3538 20.7145 17.4007 20.7145C17.4476 20.7145 17.4968 20.6957 17.5319 20.6606L18.2585 19.934C18.2758 19.9168 18.2895 19.8964 18.2989 19.8738C18.3082 19.8513 18.3131 19.8272 18.3131 19.8028C18.3131 19.7784 18.3082 19.7542 18.2989 19.7317C18.2895 19.7092 18.2758 19.6887 18.2585 19.6715ZM12.7812 17.6207C11.3304 17.6207 10.1562 16.4465 10.1562 14.9957C10.1562 13.5449 11.3304 12.3707 12.7812 12.3707C14.2319 12.3707 15.4062 13.5449 15.4062 14.9957C15.4062 16.4465 14.2319 17.6207 12.7812 17.6207Z" fill="#BAC6E0"/>
</svg>
