<svg width="24" height="24" viewBox="0 0 24 24" fill="none" xmlns="http://www.w3.org/2000/svg">
<path d="M6.4 9.19997H6.6C7.37 9.19997 8 9.82997 8 10.6V17.6C8 18.37 7.37 19 6.6 19H6.4C5.63 19 5 18.37 5 17.6V10.6C5 9.82997 5.63 9.19997 6.4 9.19997ZM12 4.99997C12.77 4.99997 13.4 5.62997 13.4 6.39997V17.6C13.4 18.37 12.77 19 12 19C11.23 19 10.6 18.37 10.6 17.6V6.39997C10.6 5.62997 11.23 4.99997 12 4.99997ZM17.6 13C18.37 13 19 13.63 19 14.4V17.6C19 18.37 18.37 19 17.6 19C16.83 19 16.2 18.37 16.2 17.6V14.4C16.2 13.63 16.83 13 17.6 13Z" fill="#BAC6E0"/>
</svg>
