<?xml version="1.0" encoding="UTF-8" standalone="no"?>
<svg
   version="1.1"
   id="svg2"
   xml:space="preserve"
   width="816"
   height="1056"
   viewBox="0 0 816 1056"
   sodipodi:docname="cvs_pharmacy.eps"
   xmlns:inkscape="http://www.inkscape.org/namespaces/inkscape"
   xmlns:sodipodi="http://sodipodi.sourceforge.net/DTD/sodipodi-0.dtd"
   xmlns="http://www.w3.org/2000/svg"
   xmlns:svg="http://www.w3.org/2000/svg"><defs
     id="defs6" /><sodipodi:namedview
     id="namedview4"
     pagecolor="#ffffff"
     bordercolor="#666666"
     borderopacity="1.0"
     inkscape:pageshadow="2"
     inkscape:pageopacity="0.0"
     inkscape:pagecheckerboard="0" /><g
     id="g8"
     inkscape:groupmode="layer"
     inkscape:label="ink_ext_XXXXXX"
     transform="matrix(1.3333333,0,0,-1.3333333,0,1056)"><g
       id="g10"
       transform="scale(0.1)"><path
         d="m 2519.05,4622.64 h 7.32 c 4.56,-0.25 9.15,-0.49 13.69,-1.09 17.39,-2.15 34.8,-8.2 48.08,-19.96 7.63,-6.69 13.68,-15.12 17.81,-24.39 4.54,-10.14 6.85,-21.16 7.66,-32.2 -19.5,-0.01 -38.99,0 -58.49,0 -0.45,4.32 -1.3,8.63 -3.01,12.64 -2.91,7.35 -9.31,13.11 -16.92,15.27 -8.18,2.31 -17.15,2.42 -25.24,-0.32 -8,-2.73 -14.16,-9.36 -17.49,-17.01 -5.05,-11.46 -5.87,-24.23 -5.76,-36.6 0.3,-12.09 1.93,-24.72 8.41,-35.2 4.48,-7.37 12.09,-12.69 20.56,-14.3 9.86,-1.9 21,-0.92 29.12,5.49 7.64,6 11.11,15.84 11.81,25.26 19.35,0.15 38.69,0.02 58.04,0.06 -1.19,-19.58 -7.7,-39.49 -21.41,-53.91 -13.73,-14.75 -33.5,-22.48 -53.21,-24.78 -22.33,-2.57 -45.82,-0.47 -66.17,9.63 -15.56,7.64 -28.55,20.32 -36.62,35.67 -10.05,18.81 -13.18,40.62 -12.21,61.73 0.9,19.84 6.08,39.92 17.47,56.41 9.19,13.49 22.57,23.97 37.7,30.03 12.31,5.02 25.61,7.23 38.86,7.57"
         style="fill:#cc0000;fill-opacity:1;fill-rule:evenodd;stroke:none"
         id="path12" /><path
         d="m 2860.17,4622.64 h 8.5 c 13.91,-0.57 27.99,-2.66 40.79,-8.4 10.04,-4.45 19.13,-11.35 25.42,-20.43 6.46,-9.21 9.82,-20.31 10.77,-31.44 -19.33,-0.01 -38.65,-0.02 -57.97,0 -0.84,4.43 -2.74,8.84 -6.32,11.74 -4.93,4.04 -11.58,5 -17.76,5.09 -5.1,0.01 -10.53,-0.33 -15,-3.05 -5.31,-3.13 -6.64,-10.91 -3.45,-15.98 2.87,-3.96 7.83,-5.46 12.27,-6.92 14.04,-4.09 28.33,-7.22 42.41,-11.14 8.41,-2.41 16.88,-5.02 24.45,-9.5 8.51,-5.26 16.33,-12.17 21.06,-21.11 4.52,-8.37 5.94,-18.08 5.62,-27.5 -0.3,-11.3 -3.09,-22.72 -9.24,-32.29 -5.41,-8.54 -13.32,-15.31 -22.23,-20 -11.32,-5.98 -24.01,-8.93 -36.67,-10.26 -11.37,-1.12 -22.89,-1.2 -34.26,0.14 -13.58,1.62 -27.11,5.49 -38.68,12.95 -8.2,5.26 -15.2,12.4 -20.13,20.8 -5.46,9.21 -8.38,19.77 -9.38,30.4 19.93,0 39.84,0 59.76,0 1.23,-5.63 3.65,-11.43 8.55,-14.82 5.89,-4.1 13.4,-4.59 20.37,-4.58 6.38,0.16 13.36,1.02 18.4,5.33 5.31,4.49 5.05,14.03 -0.73,18.02 -3.94,2.79 -8.71,4 -13.3,5.29 -19.24,4.95 -38.72,9.43 -57.16,16.96 -9.48,3.73 -17.81,10.29 -23.56,18.71 -4.95,7.21 -7.67,15.78 -8.45,24.46 -1.07,11.58 0.65,23.64 6.21,33.96 4.88,9.21 12.67,16.67 21.67,21.82 14.53,8.34 31.49,11.24 48.04,11.75"
         style="fill:#cc0000;fill-opacity:1;fill-rule:evenodd;stroke:none"
         id="path14" /><path
         d="m 2208.8,4614.46 c 7.66,7.59 19.86,10.02 29.87,6.02 3.88,-1.47 7.37,-3.85 10.26,-6.82 10.86,-10.88 21.73,-21.75 32.6,-32.61 11.03,11.02 22.05,22.06 33.08,33.08 5.19,5.2 12.47,8.24 19.82,8.25 7.39,0.08 14.74,-2.9 19.98,-8.11 11.95,-11.92 23.87,-23.88 35.82,-35.82 3.4,-3.45 7.18,-6.7 9.41,-11.09 5.84,-10.48 3.99,-24.59 -4.49,-33.12 -37.81,-37.83 -75.6,-75.67 -113.46,-113.44 -0.15,0.06 -0.46,0.19 -0.62,0.25 -37.56,37.56 -75.11,75.13 -112.67,112.68 -5.36,5.25 -8.45,12.71 -8.4,20.22 -0.02,7.33 2.94,14.62 8.11,19.82 13.56,13.57 27.12,27.14 40.69,40.69"
         style="fill:#cc0000;fill-opacity:1;fill-rule:evenodd;stroke:none"
         id="path16" /><path
         d="m 2601.59,4617.28 c 20.87,0.01 41.72,0.01 62.59,0 10.71,-41.17 21.47,-82.32 32.13,-123.49 11.67,41.11 22.96,82.35 34.54,123.5 20.08,-0.02 40.18,0 60.26,-0.01 -21.44,-63.78 -42.9,-127.55 -64.36,-191.32 -20.35,-0.01 -40.69,0 -61.04,-0.01 -21.38,63.78 -42.76,127.55 -64.12,191.33"
         style="fill:#cc0000;fill-opacity:1;fill-rule:evenodd;stroke:none"
         id="path18" /><path
         d="m 3126.18,4586.23 c 8.46,0.02 16.91,0 25.37,0 0.05,-20.11 -0.07,-40.23 0.06,-60.35 1.66,1.07 2.48,3 3.86,4.38 5.61,6.73 13.46,11.65 22.14,13.17 11.02,1.96 23.12,0.69 32.55,-5.7 7.84,-5.21 12.99,-13.8 14.93,-22.93 1.59,-6.71 1.12,-13.66 1.19,-20.51 0,-22.84 0,-45.69 0,-68.54 -8.46,0.01 -16.91,-0.01 -25.37,0.02 0.01,24.85 0.01,49.69 0,74.55 0.02,5 -1.21,10.16 -4.31,14.17 -2.79,3.69 -7.03,6.06 -11.49,7.06 -6.98,1.53 -14.63,0.64 -20.79,-3.13 -8.29,-4.94 -12.72,-14.7 -12.75,-24.14 -0.03,-22.84 0,-45.68 -0.02,-68.53 -8.46,0.02 -16.92,-0.02 -25.38,0.03 0.02,53.49 0.01,106.97 0.01,160.45"
         style="fill:#cc0000;fill-opacity:1;fill-rule:evenodd;stroke:none"
         id="path20" /><path
         d="m 3049.87,4543.29 c 12.04,2.39 25.13,0.44 35.5,-6.3 8.32,-5.37 14.52,-13.61 18.3,-22.69 5.01,-11.98 6.31,-25.22 5.47,-38.09 -0.88,-12.52 -4.31,-25.22 -11.87,-35.41 -5.96,-8.13 -14.72,-14.17 -24.48,-16.71 -10.11,-2.55 -21.11,-2.41 -30.91,1.3 -7.12,2.67 -12.91,7.91 -17.44,13.88 -0.24,-18.71 -0.03,-37.44 -0.12,-56.16 -8.45,0.02 -16.91,0 -25.36,0.01 0,52.74 0,105.49 0,158.23 8.25,-0.05 16.49,0.11 24.74,-0.08 -0.07,-5.11 -0.06,-10.21 -0.01,-15.31 0.86,0.22 1.29,1.09 1.85,1.72 5.97,7.81 14.62,13.67 24.33,15.61 z m -2.14,-20.55 c -7.48,-1.38 -14.06,-6.26 -17.87,-12.79 -5.57,-9.39 -6.81,-20.67 -6.29,-31.38 0.55,-9.66 3.15,-19.87 10.21,-26.9 4.69,-4.73 11.24,-7.29 17.83,-7.79 5.93,-0.57 12.17,0.34 17.27,3.56 5.37,3.31 9.1,8.73 11.3,14.54 3.81,10.31 4.03,21.62 2.55,32.4 -1.42,9.4 -5.17,19.32 -13.39,24.81 -6.28,4.22 -14.32,4.96 -21.61,3.55"
         style="fill:#cc0000;fill-opacity:1;fill-rule:evenodd;stroke:none"
         id="path22" /><path
         d="m 3473.3,4533.13 c 9.67,9.8 24.84,13.5 38,9.65 7.59,-2.23 14.22,-7.4 18.33,-14.15 1.04,-1.59 1.7,-3.4 2.76,-5 5.37,9.09 14.05,16.37 24.32,19.16 9.57,2.57 20.18,1.87 29.11,-2.55 8,-3.95 13.81,-11.54 16.35,-20.01 2.94,-8.96 2.06,-18.48 2.19,-27.74 -0.02,-22.25 0.06,-44.49 -0.04,-66.74 -8.52,0.03 -17.03,-0.01 -25.55,0.02 0,25.25 0.01,50.49 0,75.73 0.02,6.08 -1.75,12.61 -6.51,16.7 -6.35,5.38 -15.97,5.43 -23.16,1.74 -6.39,-3.26 -10.72,-9.69 -12.39,-16.56 -1.32,-4.94 -0.96,-10.08 -1,-15.14 -0.06,-20.84 0.1,-41.69 -0.09,-62.52 -8.42,0.09 -16.85,0.01 -25.27,0.03 -0.01,21.45 -0.01,42.88 -0.01,64.32 -0.11,5.23 0.26,10.49 -0.28,15.71 -0.65,5.91 -3.65,11.95 -9.17,14.67 -8.31,4.07 -18.93,1.84 -25.4,-4.63 -5.58,-5.4 -8.28,-13.28 -8.22,-20.95 -0.01,-23.04 0,-46.07 -0.01,-69.11 -8.46,-0.01 -16.92,-0.01 -25.38,0 0.02,38.54 -0.03,77.07 0.03,115.6 8.22,-0.02 16.44,0 24.67,-0.01 0.12,-5.42 -0.24,-10.87 0.19,-16.28 2.16,2.7 3.97,5.68 6.53,8.06"
         style="fill:#cc0000;fill-opacity:1;fill-rule:evenodd;stroke:none"
         id="path24" /><path
         d="m 3757.7,4530.68 c 8.81,7.97 20.43,12.53 32.23,13.38 12.62,0.94 25.91,-1.31 36.54,-8.52 10.99,-7.29 17.8,-19.7 19.79,-32.57 -8.38,-0.01 -16.76,0 -25.13,0 -1.18,6.34 -4.5,12.46 -9.89,16.16 -6.13,4.33 -14.08,5.21 -21.33,3.98 -6.1,-0.99 -11.88,-4 -16,-8.62 -5.28,-5.8 -7.96,-13.49 -9.09,-21.14 -1.02,-7.16 -0.96,-14.49 0.29,-21.62 1.31,-7.32 4.15,-14.6 9.38,-20.02 4.65,-4.93 11.25,-7.76 17.96,-8.29 7.35,-0.62 15.3,0.66 21.14,5.47 5.25,4.27 7.88,10.93 8.66,17.5 8.22,-0.01 16.46,0.01 24.69,-0.01 -0.81,-10.47 -4.7,-20.87 -11.88,-28.65 -7.27,-8.01 -17.57,-12.85 -28.17,-14.51 -13.1,-2.04 -27.02,-0.45 -38.81,5.85 -9.85,5.19 -17.83,13.64 -22.8,23.58 -6.61,13.12 -8.29,28.39 -6.03,42.81 2.09,13.31 8.3,26.2 18.45,35.22"
         style="fill:#cc0000;fill-opacity:1;fill-rule:evenodd;stroke:none"
         id="path26" /><path
         d="m 3259.5,4532.95 c 9.42,8.15 22.29,10.81 34.46,10.87 11.01,-0.01 22.58,-1.3 32.16,-7.17 6.95,-4.2 11.88,-11.33 13.86,-19.16 2.11,-7.56 1.56,-15.47 1.63,-23.22 0.02,-14.08 -0.03,-28.15 0.03,-42.22 0.14,-2.84 0.23,-6.21 2.57,-8.21 2.28,-1.75 5.33,-1.04 7.97,-0.77 -0.04,-5.5 0.02,-10.99 -0.04,-16.48 -5.12,-2.63 -11.06,-2.65 -16.66,-2.17 -4.93,0.46 -10.1,1.88 -13.64,5.53 -2.8,2.8 -4.17,6.65 -4.93,10.46 -0.15,-0.09 -0.45,-0.27 -0.59,-0.36 -5.96,-8.41 -15.28,-14.28 -25.46,-15.91 -11.22,-1.8 -23.37,-0.98 -33.46,4.63 -7.55,4.15 -13.01,11.75 -14.62,20.22 -1.6,8.4 -1.04,17.57 3.19,25.15 4.04,7.25 11.42,11.88 19.04,14.69 11.58,4.4 24.04,5.26 36.12,7.62 4.27,0.95 8.85,1.93 12.26,4.88 3.25,2.83 3.57,7.65 2.63,11.59 -0.95,4.17 -4.08,7.59 -7.89,9.39 -5.52,2.65 -11.86,2.92 -17.88,2.45 -5.16,-0.44 -10.62,-1.93 -14.27,-5.84 -3.41,-3.61 -4.57,-8.68 -4.85,-13.49 -8.01,0 -16.01,0 -24.02,0 0.23,10.32 4.41,20.77 12.39,27.52 z m 20.65,-58.7 c -5.06,-1.78 -10.15,-5.17 -11.6,-10.63 -1.41,-5.55 -1.12,-12.16 2.72,-16.71 3.8,-4.34 9.95,-5.38 15.44,-5.43 8.79,-0.18 18.02,2.81 23.92,9.58 3.89,4.4 6.24,10.18 6.28,16.07 0,6.1 -0.01,12.19 0,18.29 -11.36,-6.33 -24.7,-6.81 -36.76,-11.17"
         style="fill:#cc0000;fill-opacity:1;fill-rule:evenodd;stroke:none"
         id="path28" /><path
         d="m 3663.1,4543.27 c 8.91,0.97 18.01,0.69 26.79,-1.09 8.4,-1.75 16.74,-5.6 22.15,-12.46 5.54,-6.89 7.52,-15.94 7.64,-24.62 0.04,-17.47 -0.02,-34.96 0.03,-52.43 0.09,-2.88 0.1,-6.16 2.14,-8.43 2.21,-2.21 5.61,-1.49 8.38,-1.15 0.04,-5.45 -0.05,-10.91 0.06,-16.36 -4.34,-2.52 -9.56,-2.67 -14.42,-2.48 -5.44,0.27 -11.26,1.36 -15.4,5.16 -3.22,2.9 -4.76,7.14 -5.54,11.3 -4.7,-6.53 -11.13,-11.96 -18.78,-14.64 -9.23,-3.27 -19.38,-3.48 -28.94,-1.63 -9.15,1.82 -18.09,6.86 -22.8,15.16 -3.58,6.11 -4.71,13.37 -4.28,20.35 0.32,5.87 1.98,11.79 5.46,16.59 4.05,5.69 10.23,9.46 16.65,11.96 8.89,3.46 18.38,4.96 27.78,6.36 5.66,0.94 11.41,1.67 16.81,3.73 3.06,1.17 6.11,3.27 7.13,6.55 1.67,5.48 -0.22,12 -4.91,15.43 -5.09,3.78 -11.71,4.52 -17.85,4.36 -5.76,-0.18 -11.97,-1.22 -16.37,-5.24 -3.95,-3.6 -5.33,-9.1 -5.61,-14.26 -8.01,0 -16.01,-0.01 -24.02,0 0.25,9.28 3.54,18.68 10.12,25.38 7.23,7.54 17.58,11.26 27.78,12.46 z m -3.69,-68.58 c -4.9,-1.66 -10.05,-4.38 -12.17,-9.39 -1.9,-4.73 -1.85,-10.25 0,-14.98 1.88,-4.76 6.76,-7.54 11.62,-8.31 8.35,-1.35 17.4,-0.21 24.57,4.48 6.73,4.36 11.31,12 11.55,20.06 0.05,6.3 -0.02,12.59 0.03,18.88 -10.99,-6.12 -23.85,-6.81 -35.6,-10.74"
         style="fill:#cc0000;fill-opacity:1;fill-rule:evenodd;stroke:none"
         id="path30" /><path
         d="m 3412.11,4540.74 c 5.6,1.66 11.76,2.15 17.46,0.64 -0.02,-7.74 0,-15.48 -0.01,-23.22 -9.35,1.97 -19.78,-0.02 -27.13,-6.32 -5.55,-4.7 -8.89,-11.6 -10.09,-18.7 -0.92,-4.79 -0.66,-9.69 -0.7,-14.55 -0.01,-17.61 0.03,-35.22 -0.01,-52.84 -8.46,0.02 -16.91,0 -25.36,0 0,38.54 0,77.07 0,115.6 8.23,0.01 16.46,0.01 24.7,0 0.08,-6.46 -0.18,-12.92 0.13,-19.36 1.66,1.56 2.44,3.83 3.9,5.59 4.2,5.96 10.04,11 17.11,13.16"
         style="fill:#cc0000;fill-opacity:1;fill-rule:evenodd;stroke:none"
         id="path32" /><path
         d="m 3850.05,4541.34 c 9.01,-0.05 18.02,0.14 27.03,-0.09 6.13,-17.83 12.54,-35.56 18.78,-53.35 3.8,-10.29 6.96,-20.8 10.28,-31.26 1.77,5.52 3.09,11.18 4.88,16.7 7.53,22.71 15.31,45.34 22.94,68.01 8.68,0 17.36,0.01 26.04,-0.01 -15.88,-43.62 -31.78,-87.24 -47.69,-130.85 -3.39,-8.67 -7.33,-17.83 -15.06,-23.53 -5.41,-3.98 -12.28,-5.17 -18.84,-5.4 h -5.56 c -4.05,0.24 -8.08,0.67 -12.04,1.55 0.02,6.93 -0.04,13.85 0.04,20.78 5.71,-1.57 11.88,-2.08 17.67,-0.6 4.72,1.24 7.83,5.46 9.51,9.8 1.95,5.1 3.7,10.27 5.54,15.42 -14.53,37.6 -29.03,75.22 -43.52,112.83"
         style="fill:#cc0000;fill-opacity:1;fill-rule:evenodd;stroke:none"
         id="path34" /><path
         d="m 2972.82,4191.28 h 25.34 c 43.38,-2.16 87.94,-12.05 123.66,-37.89 20.86,-14.88 37.89,-34.96 49.36,-57.87 12.76,-25.09 19.06,-53.04 21.09,-80.98 -44.42,0.03 -88.82,0 -133.22,0.01 -1.83,18.61 -7.88,38.05 -22.33,50.77 -17.01,15.1 -41.31,18.23 -63.15,15.95 -19.53,-1.88 -38.22,-12.26 -49.15,-28.71 -15.6,-23.03 -19.52,-51.61 -20.79,-78.79 -0.89,-30.67 0.91,-62.72 14.65,-90.73 9.33,-19.38 27.1,-34.81 48.3,-39.51 23.39,-5.31 50.36,-3.23 69.56,12.38 17.07,13.77 24.52,35.92 26.37,57.12 44.03,0.02 88.07,0.03 132.09,0 -2.14,-32.16 -9.94,-64.4 -26.17,-92.48 -12.55,-21.85 -30.25,-40.71 -51.28,-54.63 -44.17,-29.21 -99.08,-36.84 -151,-33.78 -32.75,2.09 -65.45,9.74 -94.68,24.89 -25.31,12.97 -47.68,31.7 -64.68,54.52 -25.71,34.24 -38.96,76.51 -42.82,118.84 -3.07,35.1 -1.28,70.86 7.41,105.09 10.8,43.36 34.61,84.2 70.23,111.72 37.09,29.21 84.53,42.46 131.21,44.08"
         style="fill:#cc0000;fill-opacity:1;fill-rule:evenodd;stroke:none"
         id="path36" /><path
         d="m 3746.93,4191.28 h 25.76 c 18.35,-0.69 36.74,-2.53 54.69,-6.58 32.67,-7.23 64.75,-22.22 87.11,-47.73 20.29,-22.76 30.87,-52.83 33.28,-82.94 -43.99,-0.01 -87.98,-0.01 -131.98,0 -2.09,10.37 -6.58,20.79 -15.18,27.34 -11.85,9.19 -27.49,11 -42.02,11.02 -11.69,-0.25 -24.37,-1.34 -34.01,-8.65 -9.15,-7.02 -11.44,-20.49 -7.44,-30.9 4.37,-10.04 15.33,-14.41 24.99,-17.79 20.17,-6.43 40.87,-11.13 61.35,-16.49 30.17,-7.88 61.16,-14.38 89.25,-28.44 23.34,-12.76 44.66,-31.17 56.32,-55.5 12.08,-25.33 12.82,-54.53 8.65,-81.82 -4.13,-26.21 -15.9,-51.41 -34.63,-70.37 -20.57,-21.01 -47.94,-34.09 -76.11,-41.48 -35.06,-9.04 -71.7,-10.92 -107.71,-8.46 -30.79,2.41 -61.68,9.34 -89.09,23.97 -21.66,11.5 -40.72,28.19 -54.05,48.87 -14.53,22.18 -22.17,48.3 -24.63,74.55 45.38,0.03 90.78,0.01 136.16,0.01 2.81,-12.61 8.12,-25.62 18.98,-33.38 13.48,-9.67 30.84,-10.83 46.89,-10.77 14.3,0.32 29.78,2.32 41.2,11.71 12.52,10.01 12.15,32 -1.11,41.21 -10.61,7.42 -23.54,10.18 -35.83,13.54 -42.13,10.65 -84.66,20.82 -124.97,37.3 -26.78,10.6 -49.6,31.31 -61.8,57.47 -10.4,22.36 -12.96,47.73 -10.42,72.1 2.58,24.98 12.61,49.34 29.37,68.19 18.37,20.94 43.62,34.83 70.02,42.94 21.66,6.85 44.34,9.66 66.96,11.08"
         style="fill:#cc0000;fill-opacity:1;fill-rule:evenodd;stroke:none"
         id="path38" /><path
         d="m 2270.96,4172.71 c 11.93,11.76 28.68,18.34 45.42,18.06 16.66,0 33.16,-6.95 44.91,-18.74 25.11,-25.07 50.17,-50.19 75.28,-75.25 24.04,24.06 48.11,48.08 72.13,72.15 5.36,5.63 11.37,10.75 18.32,14.33 23.46,12.83 54.79,8.88 74.08,-9.71 31.35,-31.27 62.62,-62.6 93.94,-93.91 18.69,-18.75 23.43,-49.48 11.62,-73.14 -5.52,-12.05 -15.86,-20.69 -24.95,-29.97 -81.71,-81.72 -163.43,-163.44 -245.15,-245.14 -85.79,85.74 -171.54,171.53 -257.31,257.28 -10.98,10.71 -17.72,25.36 -19.25,40.57 v 11.01 c 1.44,15.32 8.15,30.16 19.29,40.84 30.59,30.51 61.1,61.1 91.67,91.62"
         style="fill:#cc0000;fill-opacity:1;fill-rule:evenodd;stroke:none"
         id="path40" /><path
         d="m 3164.7,4179.18 c 47.53,0 95.07,0 142.61,0 24.42,-93.62 48.71,-187.26 73.15,-280.85 26.15,93.6 52.22,187.23 78.36,280.85 45.78,0 91.58,-0.01 137.36,0 -48.76,-145.16 -97.63,-290.27 -146.47,-435.41 -46.37,-0.02 -92.76,-0.02 -139.14,0 -48.61,145.14 -97.28,290.25 -145.87,435.41"
         style="fill:#cc0000;fill-opacity:1;fill-rule:evenodd;stroke:none"
         id="path42" /><path
         d="m 2490.2,3648.03 c 14.52,0.01 29.03,0.01 43.56,0 0.07,-34.57 -0.12,-69.15 0.1,-103.71 5.59,6.97 11.21,14.08 18.58,19.29 14.2,10.71 32.78,13.8 50.17,12.18 15.1,-1.35 30.12,-7.42 40.68,-18.52 12.82,-13.11 18.37,-31.84 18.42,-49.86 -0.02,-44.81 0,-89.62 0,-134.44 -14.53,0 -29.05,0 -43.57,0 -0.04,42.85 0.02,85.69 -0.04,128.55 0.09,12.37 -5.45,25.47 -16.69,31.59 -17.13,9.24 -40.39,6.16 -54.05,-7.89 -9.21,-9.34 -13.69,-22.63 -13.6,-35.61 0.01,-38.88 0.01,-77.76 0,-116.64 -14.53,0 -29.04,0 -43.56,0 -0.02,91.69 -0.02,183.37 0,275.06"
         style="fill:#cc0000;fill-opacity:1;fill-rule:evenodd;stroke:none"
         id="path44" /><path
         d="m 2337.21,3565.64 c 18.49,11.62 41.99,13 62.7,7.3 19.68,-5.42 36.41,-19.41 46.32,-37.13 13.91,-24.48 16.97,-53.69 14.38,-81.33 -2.46,-25.03 -11.68,-50.66 -30.87,-67.73 -16.03,-14.54 -38.31,-20.75 -59.67,-19.38 -14.2,0.64 -28.53,4.87 -39.8,13.75 -5.6,4.23 -10.11,9.65 -14.56,15.03 -0.07,-32.06 0.02,-64.12 -0.04,-96.19 -14.51,0 -29.02,0.02 -43.53,-0.01 -0.07,90.39 -0.01,180.78 -0.03,271.17 14.16,0 28.31,0 42.46,0 0.06,-8.95 -0.14,-17.92 0.13,-26.87 6.44,8.14 13.58,15.95 22.51,21.39 z m 18.7,-26.49 c -16.16,-2.81 -29.17,-15.42 -34.98,-30.41 -7.72,-19.62 -8.43,-41.64 -4.14,-62.13 3.01,-13.21 9.7,-26.25 21.14,-34.04 11.91,-8.14 27.36,-10.28 41.33,-7.43 12.85,2.72 23.51,12.17 29.22,23.79 8.4,16.8 9.47,36.22 8,54.64 -1.55,16.52 -6.3,33.98 -18.84,45.63 -11.02,10.28 -27.32,12.82 -41.73,9.95"
         style="fill:#cc0000;fill-opacity:1;fill-rule:evenodd;stroke:none"
         id="path46" /><path
         d="m 3113.36,3573.68 c 16.21,4.4 34.43,3.25 49.05,-5.47 10.62,-6.19 18.65,-16.17 23.55,-27.36 10.08,16.98 26.94,30.18 46.53,33.95 18.64,3.49 39.46,0.54 54.57,-11.55 12.03,-9.55 18.96,-24.25 21.24,-39.22 1.5,-8.42 1.08,-16.99 1.13,-25.49 0,-41.86 0.01,-83.72 -0.02,-125.57 -14.64,0 -29.29,0 -43.93,0 -0.02,43.34 0,86.69 0,130.03 0.03,10.84 -3.41,22.56 -12.37,29.36 -11.86,8.83 -29.1,8.07 -41.28,0.25 -13.34,-8.49 -19.94,-24.69 -19.92,-40.09 0,-39.86 0.03,-79.71 -0.02,-119.55 -14.59,0.01 -29.15,-0.02 -43.74,0.01 0.01,42.84 -0.03,85.67 0.03,128.5 0.23,9.77 -1.73,20.22 -8.37,27.75 -6.83,7.82 -17.97,10.44 -27.97,9.19 -11.02,-1.24 -21.2,-7.49 -27.73,-16.4 -6.59,-8.85 -9.57,-20 -9.53,-30.95 0.02,-39.37 0.02,-78.74 0,-118.1 -14.53,0 -29.05,0 -43.56,0 -0.03,66.05 0.01,132.08 -0.03,198.1 14.15,0.1 28.32,0.04 42.47,0.05 0.08,-9.31 -0.13,-18.64 0.14,-27.95 9.22,14.35 23,26.19 39.76,30.51"
         style="fill:#cc0000;fill-opacity:1;fill-rule:evenodd;stroke:none"
         id="path48" /><path
         d="m 3564.42,3545.23 c 15.09,17.4 37.16,28.13 59.98,30.32 24.35,2.45 50.51,-2.12 70.08,-17.59 16.42,-12.75 26.29,-32.44 29.53,-52.75 -14.42,-0.03 -28.83,-0.01 -43.23,-0.01 -2.4,13.12 -10.45,25.57 -22.86,31.16 -20.13,8.96 -46.59,3.83 -60.22,-14.03 -12.04,-15.56 -15.03,-36.12 -14.4,-55.29 0.72,-17.83 5.24,-36.75 18.11,-49.85 10.49,-10.94 26.36,-15.15 41.17,-13.8 10.95,0.76 22.08,4.99 29.38,13.45 6.4,7.14 9.4,16.62 10.72,25.96 14.16,0.01 28.32,0.01 42.5,0 -1.55,-20.26 -9.91,-40.41 -25.26,-54.08 -18.97,-17.33 -45.93,-23.17 -71.01,-21.13 -23.91,1.62 -47.37,12.09 -63.45,30.05 -18.22,19.92 -26.74,47.32 -26.62,74.02 -0.21,26.41 7.91,53.54 25.58,73.57"
         style="fill:#cc0000;fill-opacity:1;fill-rule:evenodd;stroke:none"
         id="path50" /><path
         d="m 2719.31,3557.49 c 17.92,14.91 42.32,18.61 64.97,17.83 19.68,-0.68 40.79,-4.36 56.05,-17.82 13.3,-11.65 18.65,-29.84 18.95,-47.05 0.08,-30.33 -0.01,-60.65 0.04,-90.98 0.23,-5.04 0.12,-10.89 3.86,-14.78 3.8,-3.65 9.48,-2.3 14.17,-1.89 0.04,-9.46 -0.01,-18.94 0.03,-28.43 -12.72,-5.78 -27.7,-4.99 -40.85,-1.15 -11.17,3.34 -18.13,14.11 -19.8,25.21 -10.27,-14.78 -26.37,-25.31 -44.19,-28.17 -19.74,-3.15 -41.24,-1.73 -58.81,8.6 -13,7.53 -21.97,21.16 -24.28,35.96 -2.13,13.9 -1.1,28.89 5.92,41.34 5.88,10.42 15.89,17.82 26.65,22.61 16.89,7.53 35.38,10.27 53.53,12.99 9.16,1.52 18.46,2.8 27.19,6.1 5.06,1.94 10.1,5.25 12.1,10.52 3.39,9.61 -0.08,21.34 -8.46,27.24 -8.93,6.46 -20.48,7.61 -31.17,7.24 -10.06,-0.43 -21.03,-2.55 -28.22,-10.19 -5.96,-6.15 -7.82,-14.91 -8.45,-23.17 -13.78,-0.03 -27.56,-0.04 -41.34,0 0.53,18.07 7.85,36.41 22.11,47.99 z m 39.08,-99.9 c -8.99,-2.81 -18.67,-7.2 -22.89,-16.21 -3.61,-8.19 -3.56,-17.98 -0.25,-26.26 3.26,-8.08 11.54,-12.8 19.83,-14.11 14.81,-2.4 30.97,-0.15 43.41,8.67 11.27,7.88 18.6,21.35 18.36,35.19 0,10.06 -0.03,20.11 0,30.17 -18.12,-9.83 -39.04,-11.49 -58.46,-17.45"
         style="fill:#cc0000;fill-opacity:1;fill-rule:evenodd;stroke:none"
         id="path52" /><path
         d="m 3367.23,3557.64 c 18.02,14.85 42.48,18.5 65.16,17.67 19.63,-0.7 40.68,-4.47 55.84,-17.95 13.21,-11.65 18.52,-29.8 18.78,-46.93 0.06,-30.32 -0.06,-60.66 0.05,-90.98 0.28,-5.09 0.13,-11.08 4.04,-14.94 3.83,-3.46 9.35,-2.1 13.97,-1.7 0.03,-9.49 -0.02,-18.98 0.03,-28.47 -12.64,-5.69 -27.47,-4.96 -40.55,-1.19 -11.31,3.22 -18.39,14.09 -20.04,25.28 -10.24,-14.64 -26.15,-25.21 -43.85,-28.11 -19.41,-3.18 -40.46,-1.88 -57.95,7.82 -13.13,7.21 -22.56,20.47 -25.21,35.19 -2.93,16.12 -1.3,34.13 8.77,47.6 9.64,12.86 25.09,19.58 40.17,23.75 18.82,5.44 38.56,6.34 57.54,11.07 6.97,1.89 14.87,4.72 18.2,11.72 4.18,9.97 0.37,22.64 -8.66,28.61 -9.2,6.21 -20.82,7.24 -31.61,6.72 -9.62,-0.49 -19.95,-2.73 -26.92,-9.85 -6.15,-6.16 -8.04,-15.09 -8.71,-23.46 -13.77,-0.02 -27.54,0.01 -41.3,-0.02 0.46,18.17 7.9,36.59 22.25,48.17 z m 37.91,-100.39 c -8.87,-2.83 -18.31,-7.51 -22.19,-16.55 -3.48,-8.84 -3.29,-19.37 1.18,-27.83 3.92,-7.2 12,-10.91 19.82,-12.05 14.24,-2.02 29.63,0.14 41.68,8.41 11.59,7.82 19.25,21.52 18.95,35.61 -0.03,10.06 -0.04,20.11 -0.01,30.17 -18.42,-10 -39.74,-11.49 -59.43,-17.76"
         style="fill:#cc0000;fill-opacity:1;fill-rule:evenodd;stroke:none"
         id="path54" /><path
         d="m 2964.69,3562.27 c 12.69,9.71 29.81,12.43 45.26,9.18 0.01,-13.36 0.06,-26.75 -0.03,-40.12 -17.04,3.55 -36.21,-0.62 -48.79,-13.05 -11.59,-11.31 -16.15,-27.94 -16.12,-43.76 -0.09,-33.85 -0.02,-67.7 -0.05,-101.55 -14.52,0 -29.04,0 -43.56,0 0.03,66.06 -0.09,132.12 0.06,198.18 14.12,-0.08 28.26,0 42.38,-0.03 0.08,-11.07 -0.11,-22.15 0.11,-33.23 6.12,8.74 11.86,18.09 20.74,24.38"
         style="fill:#cc0000;fill-opacity:1;fill-rule:evenodd;stroke:none"
         id="path56" /><path
         d="m 3730.23,3571.12 c 15.45,0 30.9,0 46.36,0 5.93,-16.74 11.83,-33.51 17.75,-50.26 11.02,-31.52 22.73,-62.81 32.13,-94.87 4.33,15.71 8.76,31.38 14.26,46.72 11.07,32.8 22.23,65.58 33.25,98.4 14.96,0.04 29.92,0.01 44.88,0.01 -27.24,-74.73 -54.44,-149.46 -81.71,-224.16 -5.49,-14.11 -11.81,-28.83 -23.72,-38.79 -8.79,-7.45 -20.45,-10.14 -31.7,-10.81 h -15.27 c -5.94,0.48 -11.85,1.46 -17.7,2.53 -0.01,11.92 -0.05,23.84 0.03,35.77 8.92,-2.37 18.34,-3.18 27.49,-1.68 7.61,1.19 13.99,6.61 17.2,13.5 4.59,9.75 7.48,20.18 11.31,30.24 -24.84,64.47 -49.74,128.92 -74.56,193.4"
         style="fill:#cc0000;fill-opacity:1;fill-rule:evenodd;stroke:none"
         id="path58" /></g></g></svg>
