<svg width="14" height="19" viewBox="0 0 14 19" fill="none" xmlns="http://www.w3.org/2000/svg">
<path fill-rule="evenodd" clip-rule="evenodd" d="M4 0.5C4.27614 0.5 4.5 0.723858 4.5 1V5H9.5V1C9.5 0.723858 9.72386 0.5 10 0.5C10.2761 0.5 10.5 0.723858 10.5 1V5H12.5C13.3284 5 14 5.67157 14 6.5C14 7.32843 13.3284 8 12.5 8H12.4608C12.4454 8.22711 12.4255 8.46495 12.4013 8.70118C12.3375 9.324 12.2384 9.9893 12.0926 10.4165C11.8231 11.2058 11.4264 11.9283 10.9214 12.5411C10.4162 13.154 9.81129 13.6465 9.13795 13.985C8.61707 14.2467 8.06454 14.4116 7.5 14.4729V18C7.5 18.2761 7.27614 18.5 7 18.5C6.72386 18.5 6.5 18.2761 6.5 18V14.4729C5.93546 14.4116 5.38293 14.2467 4.86205 13.985C4.18871 13.6465 3.58377 13.154 3.07862 12.5411C2.57358 11.9283 2.17686 11.2058 1.90742 10.4165C1.76158 9.9893 1.66249 9.32399 1.59868 8.70117C1.57447 8.46495 1.55463 8.22711 1.53925 8H1.5C0.671573 8 0 7.32843 0 6.5C0 5.67157 0.671573 5 1.5 5H3.5V1C3.5 0.723858 3.72386 0.5 4 0.5ZM2.54165 8C2.55548 8.19433 2.57275 8.39699 2.59347 8.59925C2.65714 9.22073 2.74835 9.78455 2.85379 10.0934C3.08689 10.7762 3.42676 11.3912 3.85031 11.9051C4.27374 12.4189 4.77119 12.8201 5.31111 13.0915C5.85052 13.3625 6.42405 13.5 7 13.5C7.57594 13.5 8.14948 13.3625 8.68889 13.0915C9.22881 12.8201 9.72626 12.4189 10.1497 11.9051C10.5732 11.3912 10.9131 10.7762 11.1462 10.0934C11.2517 9.78455 11.3429 9.22073 11.4065 8.59925C11.4273 8.39699 11.4445 8.19433 11.4583 8H2.54165ZM12.5 6H1.5C1.22386 6 1 6.22386 1 6.5C1 6.77614 1.22386 7 1.5 7L2.5 7L12.5 7C12.7761 7 13 6.77614 13 6.5C13 6.22386 12.7761 6 12.5 6Z" fill="white"/>
</svg>
