<svg width="23" height="24" viewBox="0 0 23 24" fill="none" xmlns="http://www.w3.org/2000/svg">
<path fill-rule="evenodd" clip-rule="evenodd" d="M8.42105 1C9.03147 1 9.52632 1.49484 9.52632 2.10526V6.52632H13.9474V2.10526C13.9474 1.49484 14.4422 1 15.0526 1C15.6631 1 16.1579 1.49484 16.1579 2.10526V6.52632H17.8158C18.7314 6.52632 19.4737 7.26858 19.4737 8.18421C19.4737 8.91977 18.9947 9.54346 18.3315 9.76031C18.3132 10.0538 18.2881 10.3652 18.2565 10.6734C18.1859 11.3625 18.072 12.154 17.8885 12.6915C17.5706 13.6227 17.1007 14.4808 16.4975 15.2127C15.894 15.9449 15.1659 16.5397 14.348 16.9508C13.8663 17.1929 13.3607 17.3675 12.8421 17.4703V20.8947C12.8421 21.5052 12.3473 22 11.7368 22C11.1264 22 10.6316 21.5052 10.6316 20.8947V17.4703C10.1129 17.3675 9.60739 17.1929 9.12569 16.9508C8.30773 16.5397 7.57971 15.9449 6.97623 15.2127C6.373 14.4808 5.90309 13.6227 5.5852 12.6915C5.40169 12.154 5.28781 11.3625 5.2172 10.6734C5.18563 10.3652 5.16051 10.0538 5.14214 9.76031C4.47903 9.54346 4 8.91977 4 8.18421C4 7.26858 4.74226 6.52632 5.65789 6.52632H7.31579V2.10526C7.31579 1.49484 7.81063 1 8.42105 1ZM7.36326 9.8421C7.37761 10.0388 7.39525 10.2434 7.41622 10.4481C7.48652 11.1343 7.58297 11.7014 7.67718 11.9773C7.91473 12.6732 8.25896 13.2934 8.68206 13.8068C9.10491 14.3199 9.59532 14.7129 10.1183 14.9757C10.6402 15.238 11.1894 15.3684 11.7368 15.3684C12.2843 15.3684 12.8335 15.238 13.3553 14.9757C13.8784 14.7129 14.3688 14.3199 14.7916 13.8068C15.2147 13.2934 15.5589 12.6732 15.7965 11.9773C15.8907 11.7014 15.9872 11.1343 16.0575 10.4481C16.0784 10.2434 16.0961 10.0388 16.1104 9.8421H7.36326Z" fill="#BAC6E0"/>
</svg>
