<svg width="36" height="36" viewBox="0 0 36 36" fill="none" xmlns="http://www.w3.org/2000/svg">
<path d="M34.2987 3.41293L32.5951 1.70935C32.5308 1.64507 32.4504 1.61694 32.3661 1.61694C32.2817 1.61694 32.2013 1.64909 32.137 1.70935L29.0795 4.76694C27.7503 3.86635 26.181 3.3862 24.5754 3.38882C22.5183 3.38882 20.4612 4.1723 18.8902 5.74328L14.796 9.83748C14.7362 9.89789 14.7026 9.97947 14.7026 10.0645C14.7026 10.1495 14.7362 10.2311 14.796 10.2915L25.7125 21.208C25.7768 21.2723 25.8571 21.3004 25.9415 21.3004C26.0219 21.3004 26.1062 21.2683 26.1705 21.208L30.2647 17.1138C33.033 14.3415 33.3585 10.0544 31.2411 6.92855L34.2987 3.87096C34.4232 3.74239 34.4232 3.53748 34.2987 3.41293ZM28.3281 15.1812L25.9415 17.5678L18.4362 10.0625L20.8228 7.67587C21.8232 6.67543 23.1571 6.12096 24.5754 6.12096C25.9937 6.12096 27.3237 6.67141 28.3281 7.67587C29.3286 8.67632 29.883 10.0102 29.883 11.4286C29.883 12.8469 29.3286 14.1768 28.3281 15.1812ZM20.6862 19.4C20.6257 19.3402 20.5442 19.3066 20.4591 19.3066C20.3741 19.3066 20.2925 19.3402 20.2321 19.4L17.5562 22.0759L13.9281 18.4477L16.608 15.7678C16.7326 15.6433 16.7326 15.4384 16.608 15.3138L15.1455 13.8513C15.0851 13.7915 15.0035 13.7579 14.9185 13.7579C14.8335 13.7579 14.7519 13.7915 14.6915 13.8513L12.0116 16.5312L10.2839 14.8036C10.2539 14.7735 10.2182 14.7499 10.1788 14.734C10.1395 14.7181 10.0973 14.7103 10.0549 14.7111C9.97454 14.7111 9.89017 14.7433 9.82588 14.8036L5.7357 18.8977C2.9674 21.6701 2.64195 25.9571 4.75936 29.083L1.70177 32.1406C1.64195 32.201 1.6084 32.2826 1.6084 32.3676C1.6084 32.4526 1.64195 32.5342 1.70177 32.5946L3.40535 34.2982C3.46963 34.3625 3.54999 34.3906 3.63436 34.3906C3.71874 34.3906 3.7991 34.3585 3.86338 34.2982L6.92097 31.2406C8.27499 32.1607 9.84999 32.6187 11.425 32.6187C13.4821 32.6187 15.5393 31.8352 17.1103 30.2643L21.2045 26.1701C21.329 26.0455 21.329 25.8406 21.2045 25.7161L19.4768 23.9884L22.1567 21.3085C22.2812 21.1839 22.2812 20.979 22.1567 20.8544L20.6862 19.4ZM15.1737 28.3357C14.6819 28.83 14.0971 29.2219 13.4529 29.4888C12.8088 29.7557 12.1182 29.8922 11.421 29.8906C10.0027 29.8906 8.67276 29.3402 7.66829 28.3357C7.17402 27.8439 6.78212 27.2591 6.51523 26.615C6.24834 25.9709 6.11176 25.2802 6.11338 24.583C6.11338 23.1647 6.66383 21.8348 7.66829 20.8303L10.0549 18.4437L17.5603 25.9491L15.1737 28.3357Z" fill="#BAC6E0" />
</svg>
