<svg width="23" height="24" viewBox="0 0 23 24" fill="none" xmlns="http://www.w3.org/2000/svg">
<path fill-rule="evenodd" clip-rule="evenodd" d="M9 3C9.55228 3 10 3.44772 10 4V8H14V4C14 3.44772 14.4477 3 15 3C15.5523 3 16 3.44772 16 4V8H17.5C18.3284 8 19 8.67157 19 9.5C19 10.1655 18.5666 10.7298 17.9666 10.926C17.95 11.1915 17.9273 11.4733 17.8987 11.7521C17.8348 12.3756 17.7318 13.0917 17.5658 13.578C17.2782 14.4205 16.853 15.1969 16.3072 15.8591C15.7612 16.5216 15.1025 17.0598 14.3625 17.4317C13.9266 17.6507 13.4692 17.8087 13 17.9017V21C13 21.5523 12.5523 22 12 22C11.4477 22 11 21.5523 11 21V17.9017C10.5308 17.8087 10.0734 17.6507 9.63753 17.4317C8.89747 17.0598 8.23879 16.5216 7.69278 15.8591C7.147 15.1969 6.72185 14.4205 6.43423 13.578C6.2682 13.0917 6.16516 12.3756 6.10128 11.7521C6.07271 11.4733 6.04999 11.1915 6.03336 10.926C5.43341 10.7298 5 10.1655 5 9.5C5 8.67157 5.67157 8 6.5 8H8V4C8 3.44772 8.44772 3 9 3ZM8.04295 11C8.05593 11.178 8.07189 11.3631 8.09087 11.5483C8.15447 12.1691 8.24173 12.6822 8.32697 12.9319C8.5419 13.5614 8.85335 14.1226 9.23615 14.5871C9.61873 15.0513 10.0624 15.4069 10.5356 15.6447C11.0078 15.882 11.5047 16 12 16C12.4953 16 12.9922 15.882 13.4644 15.6447C13.9376 15.4069 14.3813 15.0513 14.7638 14.5871C15.1467 14.1226 15.4581 13.5614 15.673 12.9319C15.7583 12.6822 15.8455 12.1691 15.9091 11.5483C15.9281 11.3631 15.9441 11.178 15.9571 11H8.04295Z" fill="#BAC6E0"/>
</svg>
