<svg width="18" height="18" viewBox="0 0 20 20" fill="none" xmlns="http://www.w3.org/2000/svg">
<path fill-rule="evenodd" clip-rule="evenodd" d="M11 2C11 3.0199 10.2366 3.8615 9.25 3.98453V6.01027C10.0115 6.07309 10.6924 6.42035 11.1862 6.94556L12.6532 5.47855C12.2518 5.11277 12 4.58579 12 4C12 2.89543 12.8954 2 14 2C15.1046 2 16 2.89543 16 4C16 5.10457 15.1046 6 14 6C13.5716 6 13.1747 5.86532 12.8493 5.636L11.3501 7.13516C11.757 7.64718 12 8.29521 12 9H14C14 7.89543 14.8954 7 16 7C17.1046 7 18 7.89543 18 9C18 10.1046 17.1046 11 16 11C14.9801 11 14.1385 10.2366 14.0155 9.25H11.9897C11.9296 9.97873 11.609 10.6336 11.1213 11.1213L12.5858 12.5858C12.9477 12.2239 13.4477 12 14 12C15.1046 12 16 12.8954 16 14C16 15.1046 15.1046 16 14 16C12.8954 16 12 15.1046 12 14C12 13.5378 12.1568 13.1123 12.42 12.7736L10.9372 11.2908C10.4741 11.6828 9.89059 11.9369 9.25 11.9897V14.0155C10.2366 14.1385 11 14.9801 11 16C11 17.1046 10.1046 18 9 18C7.89543 18 7 17.1046 7 16C7 14.8954 7.89543 14 9 14V12C8.29521 12 7.64718 11.757 7.13516 11.3501L5.636 12.8493C5.86532 13.1747 6 13.5716 6 14C6 15.1046 5.10457 16 4 16C2.89543 16 2 15.1046 2 14C2 12.8954 2.89543 12 4 12C4.58579 12 5.11277 12.2518 5.47855 12.6532L6.94556 11.1862C6.42035 10.6924 6.07309 10.0115 6.01027 9.25H3.98453C3.8615 10.2366 3.0199 11 2 11C0.895431 11 0 10.1046 0 9C0 7.89543 0.895431 7 2 7C3.10457 7 4 7.89543 4 9H6C6 8.26158 6.26678 7.58547 6.70922 7.06281L5.22639 5.57998C4.88773 5.84323 4.46217 6 4 6C2.89543 6 2 5.10457 2 4C2 2.89543 2.89543 2 4 2C5.10457 2 6 2.89543 6 4C6 4.55229 5.77614 5.0523 5.4142 5.41423L6.87866 6.8787C7.42156 6.33579 8.17157 6 9 6V4C7.89543 4 7 3.10457 7 2C7 0.895431 7.89543 0 9 0C10.1046 0 11 0.895431 11 2Z" fill="#BAC6E0"/>
</svg>
