<svg width="21" height="21" viewBox="0 0 21 21" fill="none" xmlns="http://www.w3.org/2000/svg">
<path d="M18.8441 15.6574H17.1964C17.0839 15.6574 16.9785 15.7066 16.9082 15.7933C16.7441 15.9925 16.5683 16.1847 16.3832 16.3675C15.6259 17.1256 14.7289 17.7297 13.7417 18.1464C12.7191 18.5784 11.6199 18.8 10.5097 18.798C9.38706 18.798 8.29956 18.5777 7.27768 18.1464C6.29056 17.7297 5.39356 17.1256 4.63628 16.3675C3.87764 15.612 3.27272 14.7166 2.85503 13.7308C2.42143 12.7089 2.20346 11.6238 2.20346 10.5011C2.20346 9.37845 2.42378 8.29329 2.85503 7.27142C3.27221 6.2847 3.87221 5.39642 4.63628 4.6347C5.40034 3.87298 6.28862 3.27298 7.27768 2.85579C8.29956 2.42454 9.38706 2.20423 10.5097 2.20423C11.6324 2.20423 12.7199 2.4222 13.7417 2.85579C14.7308 3.27298 15.6191 3.87298 16.3832 4.6347C16.5683 4.81985 16.7417 5.01204 16.9082 5.20892C16.9785 5.29564 17.0863 5.34485 17.1964 5.34485H18.8441C18.9917 5.34485 19.0832 5.18079 19.0011 5.05657C17.2035 2.26282 14.0582 0.413604 10.4839 0.422979C4.86831 0.437041 0.365963 4.99564 0.422213 10.6042C0.478463 16.1238 4.97378 20.5792 10.5097 20.5792C14.0746 20.5792 17.2058 18.7324 19.0011 15.9456C19.0808 15.8214 18.9917 15.6574 18.8441 15.6574ZM20.9277 10.3534L17.6019 7.72845C17.4777 7.63001 17.2972 7.71907 17.2972 7.8761V9.65735H9.93784C9.83471 9.65735 9.75034 9.74173 9.75034 9.84485V11.1574C9.75034 11.2605 9.83471 11.3449 9.93784 11.3449H17.2972V13.1261C17.2972 13.2831 17.48 13.3722 17.6019 13.2738L20.9277 10.6488C20.9501 10.6312 20.9682 10.6088 20.9807 10.5832C20.9931 10.5576 20.9996 10.5296 20.9996 10.5011C20.9996 10.4726 20.9931 10.4446 20.9807 10.419C20.9682 10.3934 20.9501 10.371 20.9277 10.3534Z" fill="#BAC6E0"/>
</svg>
