<svg width="23" height="24" viewBox="0 0 23 24" fill="none" xmlns="http://www.w3.org/2000/svg">
<path d="M19.1667 4H3.83341C2.77925 4 1.92633 4.9 1.92633 6L1.91675 18C1.91675 19.1 2.77925 20 3.83341 20H19.1667C20.2209 20 21.0834 19.1 21.0834 18V6C21.0834 4.9 20.2209 4 19.1667 4ZM18.2084 18H4.79175C4.26466 18 3.83341 17.55 3.83341 17V8L10.4842 12.34C11.1072 12.75 11.893 12.75 12.5159 12.34L19.1667 8V17C19.1667 17.55 18.7355 18 18.2084 18ZM11.5001 11L3.83341 6H19.1667L11.5001 11Z" fill="#BAC6E0"/>
</svg>
