<svg width="19" height="19" viewBox="0 0 19 19" fill="none" xmlns="http://www.w3.org/2000/svg">
<path d="M17.8441 1.25284H15.6879V0.315338C15.6879 0.212213 15.6035 0.127838 15.5004 0.127838H3.50037C3.39724 0.127838 3.31287 0.212213 3.31287 0.315338V1.25284H1.15662C0.883112 1.25284 0.620809 1.36149 0.427412 1.55488C0.234015 1.74828 0.125366 2.01058 0.125366 2.28409V5.75284C0.125366 7.66768 1.53162 9.25909 3.36443 9.54971C3.72771 12.2732 5.91443 14.4177 8.65662 14.7177V17.1833H4.06287C3.64802 17.1833 3.31287 17.5185 3.31287 17.9333V18.6903C3.31287 18.7935 3.39724 18.8778 3.50037 18.8778H15.5004C15.6035 18.8778 15.6879 18.7935 15.6879 18.6903V17.9333C15.6879 17.5185 15.3527 17.1833 14.9379 17.1833H10.3441V14.7177C13.0863 14.4177 15.273 12.2732 15.6363 9.54971C17.4691 9.25909 18.8754 7.66768 18.8754 5.75284V2.28409C18.8754 2.01058 18.7667 1.74828 18.5733 1.55488C18.3799 1.36149 18.1176 1.25284 17.8441 1.25284ZM1.81287 5.75284V2.94034H3.31287V7.80596C2.87751 7.6669 2.4976 7.39309 2.22799 7.02406C1.95838 6.65503 1.81301 6.20987 1.81287 5.75284ZM14.0004 8.75284C14.0004 9.90362 13.5527 10.9888 12.7371 11.8021C11.9215 12.6177 10.8386 13.0653 9.68787 13.0653H9.31287C8.16209 13.0653 7.07693 12.6177 6.26365 11.8021C5.44802 10.9864 5.00037 9.90362 5.00037 8.75284V1.81534H14.0004V8.75284ZM17.1879 5.75284C17.1879 6.71378 16.5574 7.5294 15.6879 7.80596V2.94034H17.1879V5.75284Z" fill="#BAC6E0"/>
</svg>
