<svg width="17" height="20" viewBox="0 0 17 20" fill="none" xmlns="http://www.w3.org/2000/svg">
<path fill-rule="evenodd" clip-rule="evenodd" d="M8.51039 0C3.83028 0 0.0258059 1.4939 0.0258059 3.3346V8.09832C0.0258059 8.11357 0.0107085 8.12881 0.0107085 8.14406C-0.009421 8.27363 0.000643087 8.39939 0.0258059 8.52515V16.6654C0.0258059 18.5061 3.83028 20 8.51039 20C13.1955 20 17 18.5061 17 16.6654V3.3346C17 1.4939 13.1955 0 8.51039 0ZM8.51039 1.6654C11.3084 1.6654 13.7642 2.5 14.3932 3.26982C14.3781 3.30793 13.8598 4.42073 11.3738 4.66844C4.19764 5.37729 2.75335 3.35747 2.73322 3.32317C2.72819 3.29268 2.70303 3.25457 2.67283 3.21646C3.39246 2.47332 5.79794 1.6654 8.51039 1.6654ZM8.57581 2.88872C7.48378 2.88872 6.59808 3.2279 6.59808 3.64329C6.59808 4.05488 7.48378 4.39024 8.57581 4.39024C9.66783 4.39024 10.5586 4.05488 10.5586 3.64329C10.5586 3.2279 9.66783 2.88872 8.57581 2.88872ZM2.44134 5.71646C4.33855 6.6311 7.43849 6.98933 10.0302 6.78354C11.5298 6.66921 13.2207 6.28049 14.5593 5.72409V7.80488C14.5543 7.83156 14.1768 8.12881 14.1517 8.15168C13.7189 8.62043 12.3602 9.01677 11.3486 9.08156C3.80009 9.54649 2.44134 8.04878 2.44134 8.04878V5.71646ZM14.5593 10.2896V12.5877C14.5593 12.5877 13.4874 13.5709 11.5902 13.75C6.85474 14.1883 2.35076 13.247 2.44134 12.6829V10.4116C4.61533 11.189 7.5794 11.2957 10.2164 11.1585C11.7361 11.0823 13.3264 10.7698 14.5593 10.2896ZM14.5593 15.0152V16.6654C14.5593 17.4886 11.7563 18.3346 8.51039 18.3346C5.26954 18.3346 2.44134 17.3971 2.44134 16.5549V15.1982C3.67931 15.6974 5.17392 16.029 6.43705 16.0976C9.1495 16.2462 12.2293 15.9375 14.5593 15.0152Z" fill="#BAC6E0"/>
</svg>
