<svg width="11" height="23" viewBox="0 0 11 23" xmlns="http://www.w3.org/2000/svg">
<path d="M9.5 6.24999V16.83C9.5 18.92 7.97 20.78 5.89 20.98C3.5 21.21 1.5 19.34 1.5 17V4.63999C1.5 3.32999 2.44 2.13999 3.74 2.00999C5.24 1.85999 6.5 3.02999 6.5 4.49999V15C6.5 15.55 6.05 16 5.5 16C4.95 16 4.5 15.55 4.5 15V6.24999C4.5 5.83999 4.16 5.49999 3.75 5.49999C3.34 5.49999 3 5.83999 3 6.24999V14.86C3 16.17 3.94 17.36 5.24 17.49C6.74 17.64 8 16.47 8 15V4.66999C8 2.57999 6.47 0.719993 4.39 0.519993C2.01 0.289993 0 2.15999 0 4.49999V16.77C0 19.64 2.1 22.21 4.96 22.48C8.25 22.78 11 20.22 11 17V6.24999C11 5.83999 10.66 5.49999 10.25 5.49999C9.84 5.49999 9.5 5.83999 9.5 6.24999Z"/>
</svg>
