<svg width="20" height="20" viewBox="0 0 20 20" fill="none" xmlns="http://www.w3.org/2000/svg">
<path d="M16.7294 11.065C16.7661 10.7717 16.7936 10.4783 16.7936 10.1667C16.7936 9.855 16.7661 9.56167 16.7294 9.26833L18.6636 7.75583C18.8377 7.61833 18.8836 7.37083 18.7736 7.16917L16.9402 3.9975C16.8302 3.79583 16.5827 3.7225 16.3811 3.79583L14.0986 4.7125C13.6219 4.34583 13.1086 4.04333 12.5494 3.81417L12.2011 1.385C12.1736 1.165 11.9811 1 11.7519 1H8.08522C7.85605 1 7.66355 1.165 7.63605 1.385L7.28772 3.81417C6.72855 4.04333 6.21522 4.355 5.73855 4.7125L3.45605 3.79583C3.24522 3.71333 3.00689 3.79583 2.89689 3.9975L1.06355 7.16917C0.944387 7.37083 0.999387 7.61833 1.17355 7.75583L3.10772 9.26833C3.07105 9.56167 3.04355 9.86417 3.04355 10.1667C3.04355 10.4692 3.07105 10.7717 3.10772 11.065L1.17355 12.5775C0.999387 12.715 0.953554 12.9625 1.06355 13.1642L2.89689 16.3358C3.00689 16.5375 3.25439 16.6108 3.45605 16.5375L5.73855 15.6208C6.21522 15.9875 6.72855 16.29 7.28772 16.5192L7.63605 18.9483C7.66355 19.1683 7.85605 19.3333 8.08522 19.3333H11.7519C11.9811 19.3333 12.1736 19.1683 12.2011 18.9483L12.5494 16.5192C13.1086 16.29 13.6219 15.9783 14.0986 15.6208L16.3811 16.5375C16.5919 16.62 16.8302 16.5375 16.9402 16.3358L18.7736 13.1642C18.8836 12.9625 18.8377 12.715 18.6636 12.5775L16.7294 11.065ZM9.91855 13.375C8.14939 13.375 6.71022 11.9358 6.71022 10.1667C6.71022 8.3975 8.14939 6.95833 9.91855 6.95833C11.6877 6.95833 13.1269 8.3975 13.1269 10.1667C13.1269 11.9358 11.6877 13.375 9.91855 13.375Z" fill="#BAC6E0"/>
</svg>
