<svg width="21" height="21" viewBox="0 0 21 21" fill="none" xmlns="http://www.w3.org/2000/svg">
<path d="M20.1747 13.1683L18.6396 11.8558C18.7122 11.4105 18.7497 10.9558 18.7497 10.5011C18.7497 10.0464 18.7122 9.59171 18.6396 9.14639L20.1747 7.83389C20.2905 7.73477 20.3734 7.60274 20.4123 7.45537C20.4513 7.308 20.4444 7.15228 20.3927 7.00889L20.3716 6.94796C19.949 5.76677 19.3161 4.67179 18.5037 3.71592L18.4615 3.66671C18.3629 3.55081 18.2315 3.4675 18.0847 3.42775C17.9378 3.38801 17.7824 3.39369 17.6388 3.44405L15.7333 4.12139C15.0302 3.54483 14.2451 3.09014 13.3966 2.77139L13.0287 0.779205C13.0009 0.629304 12.9282 0.491399 12.8202 0.38381C12.7122 0.276221 12.574 0.204041 12.424 0.176862L12.3607 0.165143C11.1396 -0.0551697 9.85522 -0.0551697 8.63412 0.165143L8.57084 0.176862C8.42083 0.204041 8.28265 0.276221 8.17464 0.38381C8.06663 0.491399 7.99392 0.629304 7.96615 0.779205L7.59584 2.78077C6.75417 3.09958 5.97037 3.55403 5.27553 4.12608L3.356 3.44405C3.21248 3.39329 3.05691 3.3874 2.90997 3.42717C2.76303 3.46694 2.63167 3.55049 2.53334 3.66671L2.49115 3.71592C1.67962 4.67246 1.04688 5.76726 0.623186 6.94796L0.602092 7.00889C0.496623 7.30186 0.583342 7.62999 0.820061 7.83389L2.37397 9.16046C2.30131 9.60108 2.26615 10.0511 2.26615 10.4987C2.26615 10.9487 2.30131 11.3987 2.37397 11.837L0.820061 13.1636C0.70427 13.2627 0.621396 13.3947 0.582461 13.5421C0.543525 13.6895 0.550373 13.8452 0.602092 13.9886L0.623186 14.0495C1.0474 15.2308 1.67553 16.3206 2.49115 17.2815L2.53334 17.3308C2.63191 17.4467 2.76327 17.53 2.91013 17.5697C3.05698 17.6095 3.21244 17.6038 3.356 17.5534L5.27553 16.8714C5.97397 17.4456 6.75444 17.9003 7.59584 18.2167L7.96615 20.2183C7.99392 20.3682 8.06663 20.5061 8.17464 20.6137C8.28265 20.7213 8.42083 20.7934 8.57084 20.8206L8.63412 20.8323C9.86644 21.0538 11.1284 21.0538 12.3607 20.8323L12.424 20.8206C12.574 20.7934 12.7122 20.7213 12.8202 20.6137C12.9282 20.5061 13.0009 20.3682 13.0287 20.2183L13.3966 18.2261C14.2447 17.9082 15.0343 17.452 15.7333 16.8761L17.6388 17.5534C17.7823 17.6042 17.9379 17.6101 18.0848 17.5703C18.2318 17.5305 18.3631 17.447 18.4615 17.3308L18.5037 17.2815C19.3193 16.3183 19.9474 15.2308 20.3716 14.0495L20.3927 13.9886C20.4982 13.7003 20.4115 13.3722 20.1747 13.1683ZM16.9755 9.42295C17.0341 9.77686 17.0646 10.1401 17.0646 10.5034C17.0646 10.8667 17.0341 11.23 16.9755 11.5839L16.8208 12.5237L18.5716 14.0214C18.3062 14.6329 17.9712 15.2117 17.5732 15.7464L15.3982 14.9753L14.6622 15.58C14.1021 16.0394 13.4787 16.4003 12.8037 16.6534L11.9107 16.9886L11.4912 19.262C10.8292 19.337 10.1609 19.337 9.49897 19.262L9.07944 16.9839L8.1935 16.6441C7.52553 16.3909 6.90444 16.03 6.34897 15.573L5.61303 14.9659L3.42397 15.744C3.02553 15.2073 2.69272 14.6284 2.42553 14.019L4.19506 12.5073L4.04272 11.5698C3.98647 11.2206 3.956 10.8597 3.956 10.5034C3.956 10.1448 3.98412 9.78624 4.04272 9.43702L4.19506 8.49952L2.42553 6.9878C2.69037 6.37608 3.02553 5.79952 3.42397 5.2628L5.61303 6.04092L6.34897 5.43389C6.90444 4.97686 7.52553 4.61592 8.1935 4.3628L9.08178 4.02764L9.50131 1.74952C10.1599 1.67452 10.8326 1.67452 11.4935 1.74952L11.913 4.02295L12.806 4.35811C13.4787 4.61124 14.1044 4.97217 14.6646 5.43155L15.4005 6.03624L17.5755 5.26514C17.974 5.80186 18.3068 6.38077 18.574 6.99014L16.8232 8.4878L16.9755 9.42295ZM10.4997 6.14405C8.22162 6.14405 6.37475 7.99092 6.37475 10.269C6.37475 12.5472 8.22162 14.394 10.4997 14.394C12.7779 14.394 14.6247 12.5472 14.6247 10.269C14.6247 7.99092 12.7779 6.14405 10.4997 6.14405ZM12.356 12.1253C12.1125 12.3695 11.8232 12.5631 11.5046 12.695C11.1861 12.8269 10.8446 12.8946 10.4997 12.894C9.79897 12.894 9.14037 12.6198 8.6435 12.1253C8.39933 11.8818 8.20572 11.5925 8.07379 11.2739C7.94185 10.9554 7.87421 10.6139 7.87475 10.269C7.87475 9.56827 8.14897 8.90967 8.6435 8.4128C9.14037 7.91592 9.79897 7.64405 10.4997 7.64405C11.2005 7.64405 11.8591 7.91592 12.356 8.4128C12.6002 8.65626 12.7938 8.9456 12.9257 9.26417C13.0576 9.58274 13.1253 9.92424 13.1247 10.269C13.1247 10.9698 12.8505 11.6284 12.356 12.1253Z" fill="#BAC6E0"/>
</svg>
