<svg width="36" height="36" viewBox="0 0 36 36" fill="none" xmlns="http://www.w3.org/2000/svg">
<path d="M33.7501 17.9964H31.5001C31.3234 17.9964 31.1787 18.141 31.1787 18.3178V31.1749H4.82157V4.81778H17.6787C17.8555 4.81778 18.0001 4.67314 18.0001 4.49636V2.24636C18.0001 2.06957 17.8555 1.92493 17.6787 1.92493H3.21443C2.50326 1.92493 1.92871 2.49948 1.92871 3.21064V32.7821C1.92871 33.4932 2.50326 34.0678 3.21443 34.0678H32.7859C33.497 34.0678 34.0716 33.4932 34.0716 32.7821V18.3178C34.0716 18.141 33.9269 17.9964 33.7501 17.9964Z" fill="#BAC6E0" />
<path d="M11.728 18.9164L11.6517 23.6937C11.6476 24.0513 11.9369 24.3446 12.2945 24.3446H12.3106L17.0517 24.2281C17.132 24.224 17.2124 24.1919 17.2686 24.1356L33.9789 7.46153C34.1034 7.33698 34.1034 7.13207 33.9789 7.00752L28.9847 2.01734C28.9204 1.95305 28.8401 1.92493 28.7557 1.92493C28.6713 1.92493 28.5909 1.95707 28.5267 2.01734L11.8204 18.6914C11.7624 18.7521 11.7294 18.8325 11.728 18.9164ZM14.2793 19.8647L28.7557 5.42046L30.5717 7.23252L16.0874 21.6847L14.2512 21.7289L14.2793 19.8647Z" fill="#BAC6E0" />
</svg>
