<svg width="21" height="21" viewBox="0 0 21 21" fill="none" xmlns="http://www.w3.org/2000/svg">
<path d="M5.25 8.36719C5.25 8.66556 5.36853 8.9517 5.5795 9.16268C5.79048 9.37366 6.07663 9.49219 6.375 9.49219C6.67337 9.49219 6.95952 9.37366 7.1705 9.16268C7.38147 8.9517 7.5 8.66556 7.5 8.36719C7.5 8.06882 7.38147 7.78267 7.1705 7.57169C6.95952 7.36071 6.67337 7.24219 6.375 7.24219C6.07663 7.24219 5.79048 7.36071 5.5795 7.57169C5.36853 7.78267 5.25 8.06882 5.25 8.36719ZM13.5 8.36719C13.5 8.66556 13.6185 8.9517 13.8295 9.16268C14.0405 9.37366 14.3266 9.49219 14.625 9.49219C14.9234 9.49219 15.2095 9.37366 15.4205 9.16268C15.6315 8.9517 15.75 8.66556 15.75 8.36719C15.75 8.06882 15.6315 7.78267 15.4205 7.57169C15.2095 7.36071 14.9234 7.24219 14.625 7.24219C14.3266 7.24219 14.0405 7.36071 13.8295 7.57169C13.6185 7.78267 13.5 8.06882 13.5 8.36719ZM10.5 0C4.70156 0 0 4.70156 0 10.5C0 16.2984 4.70156 21 10.5 21C16.2984 21 21 16.2984 21 10.5C21 4.70156 16.2984 0 10.5 0ZM16.6641 16.6641C15.8625 17.4656 14.9297 18.0938 13.8914 18.5344C12.8203 18.9891 11.6789 19.2188 10.5 19.2188C9.32109 19.2188 8.17969 18.9891 7.10625 18.5344C6.06954 18.0965 5.12785 17.4613 4.33359 16.6641C3.53203 15.8625 2.90391 14.9297 2.46328 13.8914C2.01094 12.8203 1.78125 11.6789 1.78125 10.5C1.78125 9.32109 2.01094 8.17969 2.46562 7.10625C2.90346 6.06954 3.53868 5.12785 4.33594 4.33359C5.1375 3.53203 6.07031 2.90391 7.10859 2.46328C8.17969 2.01094 9.32109 1.78125 10.5 1.78125C11.6789 1.78125 12.8203 2.01094 13.8937 2.46562C14.9305 2.90346 15.8721 3.53868 16.6664 4.33594C17.468 5.1375 18.0961 6.07031 18.5367 7.10859C18.9891 8.17969 19.2188 9.32109 19.2188 10.5C19.2188 11.6789 18.9891 12.8203 18.5344 13.8937C18.0971 14.9301 17.4618 15.8711 16.6641 16.6641ZM14.0625 10.9922H12.9352C12.8367 10.9922 12.7523 11.0672 12.7453 11.1656C12.6562 12.3258 11.6836 13.2422 10.5 13.2422C9.31641 13.2422 8.34141 12.3258 8.25469 11.1656C8.24766 11.0672 8.16328 10.9922 8.06484 10.9922H6.9375C6.91207 10.9922 6.8869 10.9973 6.86351 11.0073C6.84013 11.0173 6.81903 11.032 6.80149 11.0504C6.78395 11.0688 6.77034 11.0906 6.76149 11.1144C6.75264 11.1383 6.74873 11.1637 6.75 11.1891C6.85313 13.1648 8.49609 14.7422 10.5 14.7422C12.5039 14.7422 14.1469 13.1648 14.25 11.1891C14.2513 11.1637 14.2474 11.1383 14.2385 11.1144C14.2297 11.0906 14.216 11.0688 14.1985 11.0504C14.181 11.032 14.1599 11.0173 14.1365 11.0073C14.1131 10.9973 14.0879 10.9922 14.0625 10.9922Z" fill="#BAC6E0"/>
</svg>
