<svg width="21" height="22" viewBox="0 0 21 22" fill="none" xmlns="http://www.w3.org/2000/svg">
<g clip-path="url(#clip0_16147_81313)">
<path d="M14.6255 6.30823V5.18323C14.6255 5.0801 14.5411 4.99573 14.438 4.99573H5.43799C5.33486 4.99573 5.25049 5.0801 5.25049 5.18323V6.30823C5.25049 6.41135 5.33486 6.49573 5.43799 6.49573H14.438C14.5411 6.49573 14.6255 6.41135 14.6255 6.30823ZM5.43799 8.37073C5.33486 8.37073 5.25049 8.4551 5.25049 8.55823V9.68323C5.25049 9.78635 5.33486 9.87073 5.43799 9.87073H9.75049C9.85361 9.87073 9.93799 9.78635 9.93799 9.68323V8.55823C9.93799 8.4551 9.85361 8.37073 9.75049 8.37073H5.43799ZM14.2505 11.0895C11.4544 11.0895 9.18799 13.3559 9.18799 16.152C9.18799 18.9481 11.4544 21.2145 14.2505 21.2145C17.0466 21.2145 19.313 18.9481 19.313 16.152C19.313 13.3559 17.0466 11.0895 14.2505 11.0895ZM16.77 18.6715C16.0974 19.3442 15.202 19.7145 14.2505 19.7145C13.2989 19.7145 12.4036 19.3442 11.731 18.6715C11.0583 17.9989 10.688 17.1035 10.688 16.152C10.688 15.2004 11.0583 14.3051 11.731 13.6324C12.4036 12.9598 13.2989 12.5895 14.2505 12.5895C15.202 12.5895 16.0974 12.9598 16.77 13.6324C17.4427 14.3051 17.813 15.2004 17.813 16.152C17.813 17.1035 17.4427 17.9989 16.77 18.6715ZM8.81299 18.9645H3.37549V2.46448H16.5005V10.527C16.5005 10.6301 16.5849 10.7145 16.688 10.7145H18.0005C18.1036 10.7145 18.188 10.6301 18.188 10.527V1.52698C18.188 1.11213 17.8528 0.776978 17.438 0.776978H2.43799C2.02314 0.776978 1.68799 1.11213 1.68799 1.52698V19.902C1.68799 20.3168 2.02314 20.652 2.43799 20.652H8.81299C8.91611 20.652 9.00049 20.5676 9.00049 20.4645V19.152C9.00049 19.0489 8.91611 18.9645 8.81299 18.9645Z" fill="#BAC6E0"/>
<path d="M13.9958 18.98L14.0001 13.1H14.7001V18.98H13.9958ZM15.1372 14.9811C15.1172 14.7805 15.0332 14.6243 14.885 14.5126C14.7382 14.4008 14.5473 14.3449 14.3122 14.3449C14.1469 14.3449 14.0051 14.3717 13.8868 14.4253C13.7685 14.4789 13.6781 14.5516 13.6154 14.6435C13.5527 14.7354 13.5206 14.8402 13.5192 14.9581C13.5192 15.0561 13.5398 15.1411 13.5812 15.2131C13.6239 15.2851 13.6816 15.3463 13.7543 15.3969C13.827 15.4459 13.9075 15.4872 13.9958 15.5209C14.0842 15.5546 14.1732 15.5829 14.263 15.6059L14.6734 15.7161C14.8387 15.7575 14.9976 15.8134 15.15 15.8838C15.3039 15.9542 15.4414 16.043 15.5625 16.1502C15.6851 16.2574 15.782 16.3868 15.8532 16.5384C15.9245 16.69 15.9601 16.8676 15.9601 17.0713C15.9601 17.3469 15.8946 17.5896 15.7635 17.7994C15.6324 18.0076 15.4428 18.1707 15.1949 18.2886C14.9484 18.405 14.6499 18.4632 14.2993 18.4632C13.9588 18.4632 13.6631 18.4065 13.4123 18.2932C13.1629 18.1799 12.9677 18.0145 12.8267 17.7971C12.687 17.5796 12.6115 17.3147 12.6001 17.0024H13.3803C13.3916 17.1662 13.4387 17.3025 13.5213 17.4112C13.604 17.5199 13.7115 17.6011 13.8441 17.6547C13.978 17.7083 14.1276 17.7351 14.2929 17.7351C14.4653 17.7351 14.6164 17.7075 14.7461 17.6524C14.8771 17.5957 14.9797 17.5176 15.0538 17.4181C15.1279 17.317 15.1657 17.1991 15.1671 17.0644C15.1657 16.9419 15.1322 16.8408 15.0667 16.7612C15.0011 16.68 14.9092 16.6127 14.7909 16.5591C14.6741 16.5039 14.5373 16.4549 14.3806 16.4121L13.8825 16.2743C13.522 16.1747 13.237 16.0239 13.0276 15.8218C12.8195 15.6181 12.7155 15.3479 12.7155 15.011C12.7155 14.7338 12.7853 14.4911 12.925 14.2829C13.0661 14.0746 13.2577 13.9131 13.4999 13.7982C13.7422 13.6819 14.0165 13.6237 14.3228 13.6237C14.6335 13.6237 14.9056 13.6819 15.1393 13.7982C15.3744 13.9131 15.559 14.0731 15.6929 14.2783C15.8269 14.4819 15.896 14.7162 15.9003 14.9811H15.1372Z" fill="#BAC6E0"/>
</g>
<defs>
<clipPath id="clip0_16147_81313">
<rect width="21" height="21" fill="white" transform="translate(0 0.5)"/>
</clipPath>
</defs>
</svg>
