<svg width="36" height="36" viewBox="0 0 36 36" fill="none" xmlns="http://www.w3.org/2000/svg">
<g clip-path="url(#clip0_274_287)">
<path d="M4.75 17.5H10C10.9625 17.5 11.75 16.7125 11.75 15.75V8.75C11.75 7.7875 10.9625 7 10 7H4.75C3.7875 7 3 7.7875 3 8.75V15.75C3 16.7125 3.7875 17.5 4.75 17.5ZM4.75 29.75H10C10.9625 29.75 11.75 28.9625 11.75 28V21C11.75 20.0375 10.9625 19.25 10 19.25H4.75C3.7875 19.25 3 20.0375 3 21V28C3 28.9625 3.7875 29.75 4.75 29.75ZM15.25 29.75H20.5C21.4625 29.75 22.25 28.9625 22.25 28V21C22.25 20.0375 21.4625 19.25 20.5 19.25H15.25C14.2875 19.25 13.5 20.0375 13.5 21V28C13.5 28.9625 14.2875 29.75 15.25 29.75ZM25.75 29.75H31C31.9625 29.75 32.75 28.9625 32.75 28V21C32.75 20.0375 31.9625 19.25 31 19.25H25.75C24.7875 19.25 24 20.0375 24 21V28C24 28.9625 24.7875 29.75 25.75 29.75ZM15.25 17.5H20.5C21.4625 17.5 22.25 16.7125 22.25 15.75V8.75C22.25 7.7875 21.4625 7 20.5 7H15.25C14.2875 7 13.5 7.7875 13.5 8.75V15.75C13.5 16.7125 14.2875 17.5 15.25 17.5ZM24 8.75V15.75C24 16.7125 24.7875 17.5 25.75 17.5H31C31.9625 17.5 32.75 16.7125 32.75 15.75V8.75C32.75 7.7875 31.9625 7 31 7H25.75C24.7875 7 24 7.7875 24 8.75Z" />
</g>
<defs>
<clipPath id="clip0_274_287">
<rect width="36" height="36" rx="3" fill="white"/>
</clipPath>
</defs>
</svg>
