<svg width="36" height="36" viewBox="0 0 36 36" fill="none" xmlns="http://www.w3.org/2000/svg">
<g clip-path="url(#clip0_274_290)">
<path d="M5.625 21.625H8.875C9.76875 21.625 10.5 20.8938 10.5 20V16.75C10.5 15.8562 9.76875 15.125 8.875 15.125H5.625C4.73125 15.125 4 15.8562 4 16.75V20C4 20.8938 4.73125 21.625 5.625 21.625ZM5.625 29.75H8.875C9.76875 29.75 10.5 29.0187 10.5 28.125V24.875C10.5 23.9813 9.76875 23.25 8.875 23.25H5.625C4.73125 23.25 4 23.9813 4 24.875V28.125C4 29.0187 4.73125 29.75 5.625 29.75ZM5.625 13.5H8.875C9.76875 13.5 10.5 12.7688 10.5 11.875V8.625C10.5 7.73125 9.76875 7 8.875 7H5.625C4.73125 7 4 7.73125 4 8.625V11.875C4 12.7688 4.73125 13.5 5.625 13.5ZM13.75 21.625H30C30.8937 21.625 31.625 20.8938 31.625 20V16.75C31.625 15.8562 30.8937 15.125 30 15.125H13.75C12.8562 15.125 12.125 15.8562 12.125 16.75V20C12.125 20.8938 12.8562 21.625 13.75 21.625ZM13.75 29.75H30C30.8937 29.75 31.625 29.0187 31.625 28.125V24.875C31.625 23.9813 30.8937 23.25 30 23.25H13.75C12.8562 23.25 12.125 23.9813 12.125 24.875V28.125C12.125 29.0187 12.8562 29.75 13.75 29.75ZM12.125 8.625V11.875C12.125 12.7688 12.8562 13.5 13.75 13.5H30C30.8937 13.5 31.625 12.7688 31.625 11.875V8.625C31.625 7.73125 30.8937 7 30 7H13.75C12.8562 7 12.125 7.73125 12.125 8.625Z" />
</g>
<defs>
<clipPath id="clip0_274_290">
<rect width="36" height="36" rx="3" fill="white"/>
</clipPath>
</defs>
</svg>
